<svg width="16" height="14" viewBox="0 0 16 14" fill="none" xmlns="http://www.w3.org/2000/svg">
<path d="M0.282622 6.71431L3.96934 8.09031L5.39633 12.6795C5.48763 12.9734 5.84705 13.082 6.08561 12.887L8.14065 11.2117C8.35606 11.0362 8.66289 11.0274 8.88801 11.1908L12.5946 13.8819C12.8498 14.0674 13.2113 13.9275 13.2753 13.6192L15.9906 0.558312C16.0604 0.221458 15.7294 -0.059555 15.4087 0.0644983L0.278302 5.90135C-0.0950842 6.04535 -0.0918309 6.57399 0.282622 6.71431ZM5.16636 7.35783L12.3716 2.92012C12.5011 2.8406 12.6343 3.0157 12.5231 3.11884L6.5767 8.64631C6.36769 8.84087 6.23286 9.10124 6.19467 9.38386L5.99211 10.885C5.96529 11.0854 5.68374 11.1053 5.62843 10.9113L4.8494 8.17399C4.76017 7.86178 4.89019 7.52828 5.16636 7.35783Z" fill="white"/>
</svg>
