<svg width="200" height="200" viewBox="0 0 200 200" fill="none" xmlns="http://www.w3.org/2000/svg">
    <path d="M176.568 84.7576C174.085 78.0034 169.425 71.5141 162.621 65.7698C161.512 54.8439 155.759 44.8864 147.151 37.8591C133.583 27.5537 117.009 21.9826 99.9709 22C79.3064 22.0197 59.4931 30.234 44.8765 44.8414C30.2598 59.4488 22.0329 79.2568 22 99.9214V100.037C21.9949 117.158 27.6182 133.805 38.0041 147.416C48.3899 161.026 62.9622 170.845 79.4766 175.36L79.6918 175.418L80.0643 175.525L80.5361 175.641L81.4714 175.881L81.6618 175.931L82.2991 176.071L82.473 176.113L83.3007 176.295H83.3669L84.2691 176.485H84.3188L84.9313 176.609L85.759 176.767C86.7605 176.957 87.7786 177.123 88.7884 177.263C89.5334 177.379 90.2866 177.47 91.0315 177.553L92.4966 177.71L93.7299 177.818H93.8541H94.0775H94.1769H94.3424L95.0874 177.868L96.0806 177.926C96.7345 177.926 97.3967 177.983 98.0589 178H98.7541H99.3418H100.997C121.605 177.757 141.294 169.434 155.827 154.821C170.36 140.207 178.575 120.473 178.703 99.8634C178.703 99.8634 179.01 91.2221 176.568 84.7576Z" fill="#5DC83A" stroke="black" stroke-width="0.2" stroke-miterlimit="10"/>
    <path d="M177.984 103.779C175.691 114.473 168.192 124.803 155.503 133.038C124.878 152.953 75.4219 153.177 44.7881 133.626C49.1833 131.143 160.668 67.4997 162.622 65.7533C169.434 71.5473 174.077 77.9869 176.569 84.7411C178.853 90.8208 179.344 97.4281 177.984 103.779Z" fill="#C3F97F" stroke="black" stroke-width="0.2" stroke-miterlimit="10"/>
    <path d="M162.646 65.7367C160.709 67.4667 49.2487 131.085 44.8121 133.61C44.6997 132.988 44.6196 132.361 44.5721 131.731C38.3228 37.3708 112.304 20.6509 140.438 33.2322C142.871 34.4696 145.129 36.0256 147.151 37.8592C155.759 44.8865 161.512 54.844 162.646 65.7367Z" fill="#C3F97F" stroke="black" stroke-width="0.2" stroke-miterlimit="10"/>
    <path d="M62.0531 123.785C59.8955 116.443 59.1567 108.757 59.8762 101.138C62.616 83.3258 75.6028 82.2994 73.3846 96.023C72.3638 102.919 72.6956 109.947 74.3613 116.716C88.1096 126.541 102.984 128.95 118.793 126.45C131.118 124.397 130.778 133.643 116.053 136.382C94.3009 139.486 75.967 135.248 62.0531 123.785Z" fill="#FBFA8E" stroke="black" stroke-width="0.2" stroke-miterlimit="10"/>
    <path d="M136.911 122.377C128.709 126.276 131.945 132.823 142.25 128.709C166.362 117.477 171.767 96.4698 158.159 82.6634C147.399 72.1928 138.484 82.8124 145.528 87.4559C146.56 88.2126 147.536 89.0425 148.45 89.9391C158.49 99.7806 152.878 112.751 136.911 122.377Z" fill="#FBFA8E" stroke="black" stroke-width="0.2" stroke-miterlimit="10"/>
    <path d="M66.1334 70.4795C61.1671 84.7742 73.1276 86.3468 78.7643 74.229C85.444 60.1578 94.2344 50.8543 107.321 47.5351C122.046 44.1084 115.598 36.3195 100.467 39.2579C87.9189 41.9811 73.7649 52.0876 66.1334 70.4795Z" fill="#FBFA8E" stroke="black" stroke-width="0.2" stroke-miterlimit="10"/>
    <path d="M132.078 75.9838C128.602 75.987 125.203 74.9592 122.311 73.0303C119.419 71.1014 117.164 68.3581 115.832 65.1475C114.499 61.9368 114.149 58.4031 114.825 54.9933C115.501 51.5834 117.173 48.4508 119.63 45.9916C122.087 43.5324 125.218 41.8571 128.627 41.1777C132.037 40.4984 135.571 40.8454 138.783 42.1749C141.994 43.5044 144.74 45.7567 146.671 48.6469C148.603 51.537 149.634 54.9351 149.634 58.4113C149.628 63.0669 147.776 67.5302 144.486 70.8238C141.195 74.1174 136.734 75.9728 132.078 75.9838ZM132.078 45.7472C124.753 45.7472 119.422 51.0777 119.422 58.4113C119.422 65.7449 124.753 71.0671 132.078 71.0671C139.404 71.0671 144.742 65.7366 144.742 58.4113C144.742 51.086 139.412 45.7472 132.078 45.7472Z" fill="black"/>
    <path d="M46.8903 63.1046C45.9912 63.1062 45.1119 62.8411 44.3635 62.3428C43.6151 61.8445 43.0314 61.1353 42.6862 60.3052C42.341 59.475 42.2498 58.561 42.4242 57.679C42.5986 56.797 43.0307 55.9865 43.6659 55.3502C44.3011 54.7138 45.1108 54.2802 45.9925 54.1042C46.8742 53.9282 47.7883 54.0177 48.6191 54.3614C49.4499 54.7051 50.1601 55.2875 50.6598 56.035C51.1595 56.7824 51.4262 57.6613 51.4262 58.5604C51.424 59.7635 50.9457 60.9168 50.0958 61.7683C49.2458 62.6198 48.0934 63.1002 46.8903 63.1046Z" fill="black"/>
    <path d="M60.1748 147.838C60.1748 143.435 62.4841 139.801 65.9688 138.89C68.5099 138.212 72.0112 139.056 74.246 143.459V143.509C76.7291 148.864 79.5848 152.241 83.1522 154.12C83.4419 154.269 83.7399 154.418 84.0462 154.551H84.0958C85.4865 155.156 86.6805 156.138 87.5433 157.385C88.4061 158.633 88.9035 160.096 88.9793 161.611C89.0417 163.127 88.6988 164.631 87.9858 165.97C87.2729 167.308 86.2158 168.432 84.9235 169.226C83.2184 170.236 79.6179 171.502 74.6516 168.514L74.2791 168.283C65.6212 162.72 60.7459 155.867 60.2079 148.5C60.1831 148.268 60.1748 148.053 60.1748 147.838ZM71.0758 146.447C70.1488 144.602 68.7913 143.724 67.4504 144.08C66.1095 144.436 64.6196 146.241 64.7604 149.262C65.0418 153.003 67.1111 158.574 75.38 163.937L75.6365 164.103C77.7803 165.394 79.7751 165.609 81.3064 164.69C81.9514 164.289 82.4778 163.724 82.8313 163.051C83.1849 162.379 83.3528 161.625 83.3178 160.866C83.2771 160.109 83.0221 159.378 82.5825 158.76C82.1429 158.141 81.5368 157.661 80.8346 157.373C80.5118 157.224 80.1973 157.075 79.8993 156.91C76.307 155.014 73.4845 151.687 71.0758 146.447Z" fill="black"/>
    <path d="M66.8621 87.456C60.108 88.9873 53.8918 93.0762 49.1076 98.713C48.0154 99.9973 47.0089 101.352 46.0947 102.769" stroke="black" stroke-width="0.2" stroke-linecap="round" stroke-linejoin="round" stroke-dasharray="0.8 1.6"/>
    <path d="M114.979 147.143C119.675 142.53 123.639 137.227 126.732 131.416C126.989 130.944 127.245 130.464 127.494 129.984" stroke="black" stroke-width="0.2" stroke-linecap="round" stroke-linejoin="round" stroke-dasharray="0.8 1.6"/>
    <path d="M165.476 97.5375C165.882 110.011 164.839 119.886 162.91 127.501" stroke="black" stroke-width="0.2" stroke-linecap="round" stroke-linejoin="round" stroke-dasharray="0.8 1.6"/>
    <path d="M132.592 128.428C132.534 134.172 133.866 138.915 136.018 142.334" stroke="black" stroke-width="0.2" stroke-linecap="round" stroke-linejoin="round" stroke-dasharray="0.8 1.6"/>
    <path d="M143.013 84.4927V118.139" stroke="black" stroke-width="0.2" stroke-linecap="round" stroke-linejoin="round" stroke-dasharray="0.8 1.6"/>
    <path d="M78.6578 114.274C72.1188 54.2563 122.634 23.9453 147.59 88.1265C158.88 124.968 101.834 130.315 78.6578 114.274Z" fill="#FBFA8E" stroke="black" stroke-width="0.2" stroke-miterlimit="10"/>
    <path d="M67.0444 81.6371C64.3051 80.5185 61.6615 79.1787 59.1397 77.6309C57.4629 76.6066 55.8688 75.4525 54.3721 74.1794" stroke="black" stroke-width="0.2" stroke-linecap="round" stroke-linejoin="round" stroke-dasharray="0.8 1.6"/>
    <path d="M107.752 38.6124C101.932 37.5669 96.041 36.9665 90.1299 36.8163" stroke="black" stroke-width="0.2" stroke-linecap="round" stroke-linejoin="round" stroke-dasharray="0.8 1.6"/>
</svg>
