<svg width="200" height="200" viewBox="0 0 200 200" fill="none" xmlns="http://www.w3.org/2000/svg">
    <path d="M106.704 170.728C104.33 168.902 102.117 166.876 100.088 164.672C97.6595 162.108 95.4216 159.37 93.3918 156.48C90.9918 152.92 88.6958 149.776 84.9678 143.24C86.7384 141.99 88.3667 140.549 89.8238 138.944C91.1598 137.448 92.4158 136.016 93.5918 134.624C94.5625 133.488 95.5838 132.31 96.6558 131.088C97.3871 130.143 98.3082 129.361 99.3598 128.792C100.986 128.047 102.82 127.886 104.552 128.336C105.82 128.701 107.063 129.15 108.272 129.68C109.552 130.224 111.032 130.92 112.72 131.744V125.496L84.1439 108.904L78.7999 105.792V112.032C81.4658 114.055 84.0089 116.235 86.4158 118.56C88.2238 120.352 89.1198 121.864 89.1198 123.08C89.052 125.488 88.3955 127.841 87.2078 129.936C85.7291 132.614 83.787 135.009 81.4719 137.008C77.4612 130.016 74.2612 124.395 71.8719 120.144C69.4826 115.894 66.0559 109.651 61.5919 101.416C66.4879 101.363 70.1332 100.52 72.5279 98.8883C72.8079 98.6963 73.0639 98.4963 73.3279 98.2883C75.6692 96.2617 76.8425 93.1043 76.8479 88.8163C76.8479 83.8777 74.8852 78.7683 70.9599 73.4883C69.9928 72.1931 68.9594 70.9488 67.8639 69.7603C64.2878 65.9333 60.153 62.6696 55.5999 60.0803C48.8373 56.1443 43.0266 54.6617 38.168 55.6323C37.2129 55.8142 36.2888 56.1321 35.424 56.5763C32.4267 58.1763 30.9253 61.2563 30.92 65.8163C31.0002 69.6444 31.7278 73.4312 33.072 77.0163C34.3802 80.5474 35.9003 83.9964 37.624 87.3443C38.5413 89.179 39.5653 91.139 40.696 93.2243C37.6176 92.8175 34.5071 92.7103 31.408 92.9043C29.2628 93.0156 27.1646 93.5742 25.248 94.5443L24.528 94.9683C22.6996 96.0545 21.2307 97.6541 20.304 99.5683C19.4294 101.408 18.9947 103.968 19 107.248C19 113.814 21.4187 120.544 26.256 127.44C31.1401 134.385 37.493 140.17 44.864 144.384C49.052 146.941 53.6545 148.747 58.4639 149.72C62.7532 150.464 67.1617 150.089 71.2639 148.632C72.3306 150.648 73.6452 152.984 75.2079 155.64C76.7705 158.296 78.0265 160.451 78.9759 162.104L114.672 182.84V176.352C112.032 174.699 109.376 172.824 106.704 170.728ZM51.944 66.3683C53.5439 65.6217 55.6773 66.0163 58.3439 67.5523C60.3996 68.7472 62.1884 70.3509 63.5999 72.2643C64.1365 72.9809 64.6255 73.7318 65.0639 74.5123C66.7624 77.5315 67.637 80.9444 67.5999 84.4083C67.7109 87.1349 66.9547 89.8265 65.4399 92.0963C63.9999 94.1123 61.7439 95.299 58.6719 95.6563C55.5573 89.603 53.2533 84.6563 51.7599 80.8163C51.5759 80.3363 51.4 79.8803 51.24 79.4323C50.2323 76.9137 49.6484 74.2456 49.512 71.5363C49.512 68.827 50.3226 67.1043 51.944 66.3683ZM62.1999 142.936C59.9447 142.315 57.7896 141.375 55.7999 140.144C50.4598 137.031 45.9571 132.666 42.68 127.424C39.24 122.027 37.52 116.632 37.52 111.24C37.4813 108.622 37.9654 106.022 38.944 103.592C39.3563 102.533 39.9825 101.57 40.7836 100.763C41.5847 99.9567 42.5434 99.3239 43.6 98.9043C47.488 106.067 51.688 113.67 56.1999 121.712L68.0719 142.88C66.1457 143.356 64.1349 143.376 62.1999 142.936Z" fill="#87BCF2" stroke="black" stroke-width="0.2" stroke-miterlimit="10"/>
    <path d="M68.0316 142.88C66.1182 143.35 64.1218 143.369 62.1997 142.936C59.9444 142.315 57.7893 141.375 55.7997 140.144C50.4595 137.031 45.9568 132.666 42.6797 127.424C39.2397 122.027 37.5197 116.632 37.5197 111.24C37.481 108.622 37.9651 106.022 38.9437 103.592C39.356 102.533 39.9823 101.57 40.7833 100.763C41.5844 99.9567 42.5432 99.3238 43.5997 98.9043C47.4877 106.067 51.6877 113.67 56.1997 121.712L68.0316 142.88Z" fill="#3679D0" stroke="black" stroke-width="0.2" stroke-miterlimit="10"/>
    <path d="M67.5997 84.4083C67.7107 87.1349 66.9545 89.8265 65.4397 92.0963C63.9997 94.1123 61.7437 95.299 58.6717 95.6563C55.557 89.603 53.253 84.6563 51.7597 80.8163C51.5757 80.3363 51.3997 79.8803 51.2397 79.4323C50.232 76.9137 49.6481 74.2456 49.5117 71.5363C49.5117 68.827 50.3117 67.1043 51.9117 66.3683C53.5117 65.6323 55.645 66.027 58.3117 67.5523C60.3789 68.7436 62.1789 70.3475 63.5997 72.2643C64.1362 72.9809 64.6253 73.7318 65.0637 74.5123C66.7622 77.5315 67.6368 80.9443 67.5997 84.4083Z" fill="#3679D0" stroke="black" stroke-width="0.2" stroke-miterlimit="10"/>
    <path d="M100.479 18.7123L101.415 18.1683C101.091 18.3275 100.778 18.5093 100.479 18.7123Z" fill="black" stroke="black" stroke-width="0.2" stroke-linecap="round" stroke-linejoin="round"/>
    <path d="M178.608 87.1443V93.3923L152.888 108.36L140.168 115.768L112.72 131.744V125.496L137.52 111.056L155.944 100.336V100.328L172.536 90.6803L178.608 87.1443Z" fill="black" stroke="black" stroke-width="0.2" stroke-linecap="round" stroke-linejoin="round"/>
    <path d="M180.544 138.064V144.552L114.656 182.904V176.416L174.968 141.312L180.544 138.064Z" fill="black" stroke="black" stroke-width="0.2" stroke-linecap="round" stroke-linejoin="round"/>
    <path d="M108.272 129.68L84.9678 143.28C86.7383 142.03 88.3667 140.589 89.8238 138.984C91.1598 137.488 92.4158 136.056 93.5917 134.664C94.5624 133.528 95.5837 132.35 96.6557 131.128C97.387 130.183 98.3081 129.401 99.3597 128.832C100.986 128.087 102.82 127.926 104.552 128.376C105.819 128.728 107.062 129.164 108.272 129.68Z" fill="#3679D0" stroke="black" stroke-width="0.2" stroke-miterlimit="10"/>
    <path d="M180.543 138.064L174.943 141.312L114.631 176.416C111.997 174.72 109.346 172.824 106.679 170.728C104.306 168.902 102.092 166.876 100.063 164.672C97.635 162.108 95.3971 159.37 93.3673 156.48C90.9673 152.92 88.6713 149.776 84.9434 143.24L108.247 129.64C109.527 130.184 111.007 130.88 112.695 131.704L140.143 115.704L152.863 108.296C155.455 112.608 157.311 115.2 159.263 118.064C161.299 120.973 163.551 123.725 165.999 126.296C168.026 128.504 170.239 130.533 172.615 132.36C175.271 134.472 177.914 136.374 180.543 138.064Z" fill="#B9DCFC" stroke="black" stroke-width="0.2" stroke-miterlimit="10"/>
    <path d="M72.5273 98.8883L72.2793 99.0323" stroke="black" stroke-width="0.2" stroke-linecap="round" stroke-linejoin="round"/>
    <path d="M178.607 87.1442L172.535 90.6802L155.943 100.328V100.336L137.519 111.056L112.719 125.496L84.1434 108.904L78.7754 105.792L96.9433 95.2162L108.255 88.6322L120.879 81.2882L133.391 74.0002L144.663 67.4402L178.607 87.1442Z" fill="#B9DCFC" stroke="black" stroke-width="0.2" stroke-miterlimit="10"/>
    <path d="M142.719 50.4643C142.719 54.763 141.546 57.9203 139.2 59.9363C138.761 60.3122 138.287 60.6444 137.784 60.9283L137.672 60.9923L129.056 66.0003L116.456 73.3363L104.456 80.3123L91.2477 87.9923L72.5277 98.8883C72.8077 98.6963 73.0637 98.4963 73.3277 98.2883C75.669 96.2617 76.8424 93.1043 76.8477 88.8163C76.8477 83.8777 74.885 78.7683 70.9597 73.4883C69.9926 72.1932 68.9593 70.9488 67.8637 69.7603C64.2877 65.9333 60.1528 62.6696 55.5998 60.0803C48.8371 56.1443 43.0265 54.6617 38.1678 55.6323C37.2127 55.8142 36.2887 56.1321 35.4238 56.5763L100.48 18.7123L101.416 18.1683C102.247 17.7586 103.129 17.4626 104.04 17.2883C108.904 16.3177 114.714 17.7977 121.472 21.7283C127.455 25.1038 132.682 29.6697 136.832 35.1443C140.757 40.419 142.719 45.5257 142.719 50.4643Z" fill="#B9DCFC" stroke="black" stroke-width="0.2" stroke-miterlimit="10"/>
    <path d="M101.647 18.0322L101.415 18.1682" stroke="black" stroke-width="0.2" stroke-linecap="round" stroke-linejoin="round"/>
    <path d="M40.6481 93.2643C37.5698 92.8575 34.4592 92.7503 31.3602 92.9443C29.215 93.0556 27.1168 93.6143 25.2002 94.5843L37.5762 87.3843C38.4935 89.219 39.5175 91.179 40.6481 93.2643Z" fill="#B9DCFC" stroke="black" stroke-width="0.2" stroke-miterlimit="10"/>
    <path d="M180.328 138.064V144.56L144.64 123.824C143.664 122.171 142.408 120.014 140.872 117.352C139.336 114.691 138.021 112.358 136.928 110.352C132.826 111.811 128.416 112.183 124.128 111.432C119.32 110.458 114.718 108.656 110.528 106.104C103.159 101.888 96.8062 96.1034 91.92 89.1602C87.0827 82.2535 84.6641 75.5229 84.6641 68.9682C84.6641 65.6882 85.0987 63.1255 85.9681 61.2802C86.8976 59.37 88.3659 57.7737 90.192 56.6882L90.912 56.2642C92.8283 55.2922 94.9264 54.7309 97.072 54.6162C100.171 54.4249 103.282 54.5347 106.36 54.9442C105.235 52.8589 104.211 50.8989 103.288 49.0642C101.564 45.7136 100.044 42.262 98.736 38.7282C97.3948 35.1422 96.6673 31.3559 96.584 27.5282C96.584 23.6002 97.688 20.7842 99.888 19.0562M178.432 87.2722V93.4322C176.768 92.6269 175.301 91.9495 174.032 91.4002H173.984C172.776 90.8665 171.533 90.4174 170.264 90.0562C168.533 89.5977 166.696 89.759 165.072 90.5122C164.022 91.0798 163.101 91.8588 162.368 92.8002C161.301 94.0269 160.28 95.2082 159.304 96.3442C158.125 97.7309 156.869 99.1709 155.536 100.664C154.079 102.269 152.45 103.71 150.68 104.96C151.48 106.328 152.176 107.544 152.84 108.648M128.944 66.0162C128.432 65.0642 127.848 64.1442 127.344 63.1362C131.344 63.0882 134.496 62.5122 136.816 61.4322M144.816 67.6962L144.496 67.5042V73.7522C147.162 75.7775 149.708 77.9573 152.12 80.2802C153.923 82.0722 154.821 83.5789 154.816 84.8002C154.748 87.2074 154.092 89.5613 152.904 91.6562C151.425 94.332 149.483 96.7239 147.168 98.7202C143.163 91.7389 139.963 86.1202 137.568 81.8642C136.587 80.1362 135.44 78.0775 134.128 75.6882L133.328 74.2562M117.624 28.0242C119.224 27.2802 121.36 27.6802 124.024 29.2002C126.075 30.3983 127.861 32.0016 129.272 33.9122C129.807 34.63 130.296 35.3809 130.736 36.1602C132.452 39.1773 133.343 42.5932 133.32 46.0642C133.43 48.7907 132.674 51.4819 131.16 53.7522C129.72 55.7629 127.464 56.9495 124.392 57.3122C121.272 51.2589 118.965 46.3095 117.472 42.4642C117.288 41.9922 117.112 41.5362 116.952 41.0802C115.944 38.5643 115.361 35.8989 115.224 33.1922C115.203 30.4829 116.003 28.7602 117.624 28.0242ZM127.88 104.592C125.625 103.969 123.47 103.029 121.48 101.8C116.14 98.6869 111.637 94.3214 108.36 89.0802C104.92 83.6722 103.2 78.2775 103.2 72.8962C103.16 70.2741 103.647 67.6706 104.632 65.2402C105.04 64.1821 105.664 63.22 106.462 62.4146C107.261 61.6091 108.217 60.9778 109.272 60.5602C113.16 67.7122 117.36 75.3149 121.872 83.3682L133.744 104.536C131.819 105.003 129.813 105.022 127.88 104.592Z" stroke="black" stroke-width="0.2" stroke-linecap="round" stroke-linejoin="round" stroke-dasharray="0.8 1.6"/>
    <path d="M133.392 74.0002L120.88 81.2802L108.256 88.6322L96.9437 95.2162L78.7997 105.792V112.032C81.4657 114.055 84.0088 116.235 86.4157 118.56C88.2237 120.352 89.1197 121.864 89.1197 123.08C89.0518 125.487 88.3954 127.841 87.2077 129.936C85.729 132.614 83.7869 135.009 81.4717 137.008C77.4611 130.016 74.2611 124.395 71.8718 120.144C69.4824 115.894 66.0558 109.651 61.5918 101.416C66.4878 101.363 70.1331 100.52 72.5278 98.8882L91.2557 87.9922L104.464 80.3122L116.464 73.3362L129.064 66.0002C130.653 68.9602 132.096 71.6268 133.392 74.0002Z" fill="#3679D0" stroke="black" stroke-width="0.2" stroke-miterlimit="10"/>
    <path d="M78.96 162.168L144.64 123.824" stroke="black" stroke-width="0.2" stroke-linecap="round" stroke-linejoin="round" stroke-dasharray="0.8 1.6"/>
    <path d="M78.7754 112.032L144.455 73.6883" stroke="black" stroke-width="0.2" stroke-linecap="round" stroke-linejoin="round" stroke-dasharray="0.8 1.6"/>
    <path d="M37.5762 87.3843L90.12 56.6883" stroke="black" stroke-width="0.2" stroke-linecap="round" stroke-linejoin="round" stroke-dasharray="0.8 1.6"/>
</svg>
