<svg width="200" height="200" viewBox="0 0 200 200" fill="none" xmlns="http://www.w3.org/2000/svg">
    <path d="M183.646 77.7618L178.888 75.007C179.304 73.4811 179.521 71.9078 179.533 70.3262C179.533 67.1264 178.39 64.5711 176.678 63.3357C176.364 63.1116 176.024 62.9262 175.665 62.7832L164.155 57.3121C168.805 54.0585 176.809 57.4579 180.024 59.146H180.07C185.042 61.9622 186.439 68.9296 183.646 77.7618Z" fill="#C93C4F" stroke="black" stroke-width="0.2" stroke-linecap="round" stroke-linejoin="round"/>
    <path d="M175.642 62.7832C175.041 62.5469 174.4 62.4271 173.755 62.4302C171.898 62.4998 170.094 63.0641 168.529 64.0646C162.467 67.5637 157.571 76.0429 157.594 83.0027C157.594 83.2175 157.594 83.4247 157.594 83.6242C157.594 83.8237 157.594 84.0232 157.594 84.2228C157.614 84.539 157.649 84.8541 157.702 85.1666C157.702 85.297 157.74 85.4275 157.763 85.5579C157.786 85.6884 157.763 85.673 157.763 85.7268C157.763 85.7805 157.817 85.9876 157.848 86.1104C157.878 86.2332 157.947 86.4634 157.993 86.6322C157.997 86.6679 157.997 86.7039 157.993 86.7396C158.354 88.0247 159.173 89.1331 160.295 89.8551L148.678 82.8799C152.875 69.6586 145.608 57.6036 151.517 54.258C152.192 53.8666 164.731 58.0947 165.414 57.7724L175.642 62.7832Z" fill="#C93C4F" stroke="black" stroke-width="0.2" stroke-linecap="round" stroke-linejoin="round"/>
    <path d="M170.125 53.7899L160.364 48.4952L104.786 18.3079C100.521 15.9558 95.5021 15.3743 90.8123 16.6888C81.6041 19.3591 70.8997 27.2244 66.2956 43.5458C65.9886 44.6508 65.7815 45.7788 65.5282 46.8991L64.9681 49.8841L64.4463 52.3703C61.5611 67.9474 59.6274 85.3277 50.588 110.965C50.588 111.034 50.5343 111.11 50.5036 111.187L50.3809 111.533L95.846 137.622L102.821 141.62L119.212 151.035L119.373 151.097C119.728 151.25 120.067 151.438 120.386 151.657C122.097 152.892 123.233 155.448 123.24 158.64C123.231 160.221 123.017 161.794 122.603 163.321C121.069 169.045 117.055 174.831 112.313 177.578C109.367 179.281 106.435 179.381 104.433 178.345C104.506 178.403 104.583 178.457 104.663 178.506L96.4369 173.718C96.6979 176.228 97.6457 178.618 99.1763 180.624C100.073 181.792 101.185 182.776 102.453 183.525C120.869 192.104 131.543 158.202 133.599 151.91L134.474 149.109L135.242 146.807C140.367 131.683 145.017 111.226 147.519 93.5153C151.532 66.5968 165.329 51.0812 179.955 59.1383L170.125 53.7899Z" fill="#EC4E65" stroke="black" stroke-width="0.2" stroke-linecap="round" stroke-linejoin="round"/>
    <path d="M178.535 74.9763L160.464 64.9931" stroke="black" stroke-width="0.2" stroke-linecap="round" stroke-linejoin="round" stroke-dasharray="0.8 1.6"/>
    <path d="M179.511 70.3415C179.499 71.923 179.282 73.4964 178.866 75.0223C177.331 80.7467 173.318 86.5324 168.576 89.2719C165.507 91.0674 162.384 91.0751 160.381 89.8551C160.234 89.7563 160.093 89.6486 159.959 89.5328C159.059 88.8176 158.403 87.8421 158.079 86.7396C158.082 86.7039 158.082 86.6679 158.079 86.6322C158.033 86.4634 157.979 86.2869 157.933 86.1104C157.887 85.9339 157.879 85.8572 157.849 85.7267C157.818 85.5963 157.849 85.6193 157.849 85.5579C157.849 85.4965 157.802 85.297 157.787 85.1666C157.741 84.8596 157.703 84.5527 157.68 84.2227C157.68 84.0232 157.68 83.8237 157.68 83.6242C157.68 83.4247 157.68 83.2175 157.68 83.0027C157.68 76.0429 162.552 67.5637 168.614 64.0646C170.179 63.0631 171.983 62.4987 173.84 62.4302C174.486 62.4271 175.126 62.5469 175.728 62.7831C176.079 62.9401 176.418 63.1249 176.741 63.3356C178.367 64.5864 179.495 67.1417 179.511 70.3415Z" fill="#F3A4A9" stroke="black" stroke-width="0.2" stroke-linecap="round" stroke-linejoin="round"/>
    <path d="M177.577 73.8253C177.577 78.1761 174.507 83.4708 170.747 85.6577C168.852 86.755 167.125 86.8548 165.882 86.1411L165.736 86.0491C165.385 85.8202 165.078 85.529 164.831 85.1896C164.154 84.1691 163.818 82.9601 163.872 81.7366C163.872 77.3934 166.941 72.0911 170.709 69.9118C171.785 69.2164 173.062 68.8979 174.338 69.0063C174.776 69.0651 175.198 69.2085 175.581 69.4284C176.809 70.1497 177.569 71.6614 177.577 73.8253Z" fill="#F3A4A9" stroke="black" stroke-width="0.2" stroke-linecap="round" stroke-linejoin="round"/>
    <path d="M175.581 69.4284C175.198 69.2085 174.775 69.0651 174.338 69.0064C173.061 68.8979 171.784 69.2164 170.708 69.9118C166.917 72.0911 163.863 77.3934 163.871 81.7366C163.817 82.9601 164.153 84.1692 164.83 85.1896C165.077 85.529 165.384 85.8203 165.736 86.0491L163.886 84.9211L163.204 84.499C162.206 83.7317 161.607 82.2891 161.607 80.3707C161.607 76.0275 164.677 70.7329 168.437 68.5459C170.248 67.5024 171.898 67.3566 173.125 67.9628L173.517 68.1853L175.581 69.4284Z" fill="#C93C4F" stroke="black" stroke-width="0.2" stroke-linecap="round" stroke-linejoin="round"/>
    <path d="M174.592 78.1147C174.591 78.7345 174.433 79.3438 174.132 79.8859C173.832 80.428 173.399 80.8852 172.874 81.2147C172.349 81.5442 171.749 81.7353 171.131 81.7702C170.512 81.8051 169.894 81.6827 169.336 81.4143C169.089 81.2973 168.865 81.136 168.676 80.9385C168.417 80.5511 168.288 80.0917 168.308 79.6264C168.356 78.725 168.617 77.8478 169.07 77.0664C169.522 76.285 170.152 75.6215 170.909 75.1297C171.326 74.8833 171.806 74.7633 172.29 74.7844C172.492 74.8089 172.684 74.8827 172.85 74.9993C173.383 75.3262 173.823 75.7843 174.128 76.3297C174.433 76.8752 174.592 77.4898 174.592 78.1147Z" fill="#C93C4F" stroke="black" stroke-width="0.2" stroke-linecap="round" stroke-linejoin="round"/>
    <path d="M102.737 154.381L102.584 154.542L102.476 154.657C101.223 155.977 100.133 157.443 99.2303 159.024C96.7543 163.501 95.7806 168.654 96.4525 173.726C96.6233 175.717 97.256 177.64 98.3003 179.344C99.3446 181.048 100.772 182.485 102.468 183.54L18.7204 135.197C13.0498 131.683 12.1213 121.454 17.9531 112.691C18.214 112.3 18.4902 111.924 18.7818 111.51L19.2269 110.919L19.695 110.328L20.1093 109.837L20.7002 109.146C20.8767 108.947 21.0532 108.755 21.2373 108.563C21.4215 108.371 21.6057 108.164 21.7975 107.972L26.5243 110.688L41.4108 119.244L45.8768 121.815L102.729 154.373L102.737 154.381Z" fill="#EC4E65" stroke="black" stroke-width="0.2" stroke-linecap="round" stroke-linejoin="round"/>
    <path d="M102.737 154.381L102.591 154.542L102.484 154.657C101.231 155.977 100.141 157.443 99.238 159.023L17.9531 112.699C18.214 112.308 18.4903 111.932 18.7819 111.517L19.2269 110.926L19.695 110.335L20.1094 109.844L20.7002 109.154C20.8767 108.954 21.0532 108.762 21.2374 108.571C21.4215 108.379 21.6057 108.172 21.7975 107.98L26.5244 110.696L41.4109 119.252L45.8768 121.815L102.737 154.381Z" fill="black"/>
    <path d="M119.212 151.051C118.655 150.855 118.069 150.754 117.478 150.751C116.552 150.759 115.633 150.922 114.762 151.235C113.889 151.537 113.048 151.925 112.252 152.394C106.198 155.893 101.302 164.372 101.318 171.332C101.318 171.546 101.318 171.746 101.318 171.953C101.318 172.16 101.318 172.352 101.318 172.544C101.318 172.866 101.379 173.181 101.425 173.48L101.494 173.879V174.04C101.525 174.178 101.556 174.309 101.586 174.432C101.625 174.608 101.678 174.785 101.732 174.953C101.735 174.987 101.735 175.02 101.732 175.053C101.849 175.409 101.993 175.755 102.162 176.089C102.506 176.777 102.999 177.38 103.604 177.854C103.743 177.961 103.881 178.069 104.034 178.169L104.341 178.345L104.579 178.506L96.353 173.718C95.7315 168.347 95.5166 160.857 101.724 154.458L45.8771 121.815L41.4111 119.244L27.4531 111.233C30.2386 107.519 36.7533 103.798 40.3138 105.693L40.4903 105.793L50.3814 111.525L119.212 151.051Z" fill="#C93C4F" stroke="black" stroke-width="0.2" stroke-linecap="round" stroke-linejoin="round"/>
    <path d="M120.401 151.68C120.082 151.461 119.743 151.273 119.388 151.12L119.227 151.058C118.669 150.863 118.083 150.762 117.492 150.759C116.566 150.766 115.648 150.93 114.776 151.243C113.903 151.544 113.062 151.932 112.267 152.401C106.212 155.9 101.317 164.38 101.332 171.339C101.332 171.554 101.332 171.754 101.332 171.961C101.332 172.168 101.332 172.36 101.332 172.552C101.332 172.874 101.393 173.189 101.439 173.488L101.509 173.887V174.048C101.539 174.186 101.57 174.317 101.601 174.439C101.639 174.616 101.693 174.792 101.746 174.961C101.75 174.994 101.75 175.028 101.746 175.061C101.864 175.417 102.007 175.763 102.176 176.097C102.52 176.785 103.013 177.387 103.619 177.862C103.757 177.969 103.895 178.077 104.048 178.176L104.355 178.353C106.366 179.396 109.297 179.304 112.236 177.585C116.986 174.846 121.014 169.053 122.534 163.336C122.947 161.807 123.161 160.231 123.171 158.647C123.247 155.471 122.112 152.915 120.401 151.68ZM114.507 173.994C112.62 175.092 110.893 175.191 109.65 174.478L109.497 174.386L107.655 173.25L106.972 172.836C105.974 172.068 105.376 170.618 105.368 168.707C105.368 164.364 108.438 159.062 112.198 156.875C114.009 155.831 115.658 155.693 116.886 156.299L117.277 156.522L119.326 157.742C120.554 158.456 121.321 159.975 121.329 162.131C121.344 166.497 118.283 171.8 114.507 173.994Z" fill="#F3A4A9" stroke="black" stroke-width="0.2" stroke-linecap="round" stroke-linejoin="round"/>
    <path d="M121.33 162.147C121.33 166.497 118.26 171.8 114.493 173.987C112.605 175.084 110.878 175.184 109.635 174.47L109.482 174.378L107.64 173.242L106.957 172.828C105.96 172.061 105.361 170.61 105.354 168.7C105.354 164.357 108.423 159.054 112.183 156.867C113.994 155.824 115.644 155.686 116.871 156.292L117.263 156.514L119.312 157.734C120.555 158.471 121.322 159.99 121.33 162.147Z" fill="#F3A4A9" stroke="black" stroke-width="0.2" stroke-linecap="round" stroke-linejoin="round"/>
    <path d="M121.33 162.147C121.33 166.497 118.26 171.8 114.493 173.987C112.605 175.084 110.879 175.184 109.635 174.47L109.482 174.378C109.134 174.144 108.83 173.851 108.584 173.511C107.906 172.494 107.57 171.287 107.625 170.066C107.625 165.722 110.694 160.42 114.454 158.233C115.533 157.537 116.813 157.221 118.092 157.335C118.528 157.391 118.948 157.534 119.327 157.757C120.555 158.471 121.322 159.99 121.33 162.147Z" fill="#F3A4A9" stroke="black" stroke-width="0.2" stroke-linecap="round" stroke-linejoin="round"/>
    <path d="M119.327 157.757C118.948 157.534 118.528 157.391 118.091 157.335C116.813 157.221 115.533 157.537 114.454 158.233C110.671 160.42 107.61 165.722 107.625 170.066C107.569 171.287 107.906 172.494 108.584 173.511C108.83 173.851 109.134 174.144 109.482 174.378L107.64 173.242L106.957 172.828C105.96 172.061 105.361 170.61 105.354 168.7C105.354 164.357 108.423 159.054 112.183 156.867C113.994 155.824 115.644 155.686 116.871 156.292L117.263 156.514L119.327 157.757Z" fill="#C93C4F" stroke="black" stroke-width="0.2" stroke-linecap="round" stroke-linejoin="round"/>
    <path d="M118.345 166.436C118.345 167.056 118.188 167.667 117.888 168.21C117.588 168.753 117.155 169.211 116.63 169.542C116.105 169.872 115.505 170.064 114.885 170.099C114.266 170.134 113.648 170.012 113.088 169.743C112.844 169.621 112.622 169.46 112.428 169.267C112.173 168.879 112.046 168.42 112.068 167.955C112.115 167.052 112.375 166.174 112.827 165.391C113.279 164.608 113.911 163.943 114.669 163.451C115.087 163.206 115.567 163.089 116.05 163.113C116.25 163.141 116.441 163.212 116.61 163.321C117.141 163.649 117.579 164.108 117.883 164.653C118.186 165.198 118.345 165.812 118.345 166.436Z" fill="#C93C4F" stroke="black" stroke-width="0.2" stroke-linecap="round" stroke-linejoin="round"/>
    <path d="M40.5667 105.908C40.6818 105.969 40.7969 106.046 40.912 106.123C42.6232 107.358 43.7512 109.913 43.7665 113.106C43.7546 114.687 43.5379 116.26 43.1219 117.786C41.5872 123.511 37.574 129.297 32.8318 132.044C29.7625 133.839 26.6394 133.847 24.6366 132.619C24.4908 132.519 24.345 132.412 24.2146 132.305C23.3164 131.579 22.6607 130.596 22.3346 129.488C22.3379 129.455 22.3379 129.422 22.3346 129.389C22.2885 129.22 22.2348 129.043 22.1888 128.867C22.1427 128.69 22.1351 128.614 22.1044 128.475C22.108 128.422 22.108 128.368 22.1044 128.314C22.1044 128.184 22.0583 128.053 22.043 127.915C21.9969 127.616 21.9586 127.301 21.9355 126.979C21.9355 126.787 21.9355 126.588 21.9355 126.388C21.9355 126.189 21.9355 125.982 21.9355 125.767C21.9355 121.086 24.1302 115.707 27.4297 111.632C27.4758 111.579 27.5141 111.517 27.5602 111.471" stroke="black" stroke-width="0.2" stroke-linecap="round" stroke-linejoin="round" stroke-dasharray="0.8 1.6"/>
    <path d="M39.5079 115.676C39.5079 120.027 36.4385 125.329 32.6785 127.509C30.7832 128.606 29.0643 128.713 27.8212 127.992L27.6677 127.9C27.3142 127.673 27.0069 127.382 26.7623 127.041C26.0878 126.019 25.7547 124.81 25.8108 123.588C25.8108 119.244 28.8801 113.95 32.6401 111.763C33.7052 111.068 34.9713 110.746 36.239 110.85C36.6768 110.908 37.099 111.052 37.4821 111.272C38.7405 111.985 39.5079 113.505 39.5079 115.676Z" stroke="black" stroke-width="0.2" stroke-linecap="round" stroke-linejoin="round" stroke-dasharray="0.8 1.6"/>
    <path d="M96.4519 173.726L24.6592 132.619" stroke="black" stroke-width="0.2" stroke-linecap="round" stroke-linejoin="round" stroke-dasharray="0.8 1.6"/>
    <path d="M176.271 90.7452L178.888 75.0223" stroke="black" stroke-width="0.2" stroke-linecap="round" stroke-linejoin="round"/>
    <path d="M176.479 103.038L176.233 103.084C174.838 103.274 173.418 103.021 172.174 102.363C171.766 102.151 171.4 101.868 171.092 101.526C170.827 101.286 170.656 100.959 170.613 100.604C170.569 100.249 170.655 99.8898 170.854 99.5927L176.279 90.6915L178.474 100.889C178.75 101.864 177.998 102.731 176.479 103.038Z" fill="#F3A4A9" stroke="black" stroke-width="0.2" stroke-linecap="round" stroke-linejoin="round"/>
    <path d="M74.0998 46.8838L94.327 58.7086L93.4983 61.9084C87.82 58.5781 86.4234 59.0692 87.7125 64.8934C88.7868 70.0039 90.2524 75.7896 91.9406 81.9591C96.1917 78.4907 100.174 75.1988 102.729 72.8354C105.799 69.8504 103.144 67.6098 99.5833 65.3921L100.443 62.3228L116.726 71.9376L115.958 75.0607C112.122 72.6896 109.221 73.0195 104.962 76.3728L92.9919 85.6654L100.711 112.522C102.123 117.288 103.405 121.684 106.466 123.265L105.584 125.813L85.0882 113.804L85.9553 111.218C91.672 114.686 93.0379 113.727 92.2015 108.095C91.2193 102.608 89.6002 96.0782 87.7432 89.1644C83.415 92.2561 79.2623 95.5864 75.3046 99.1399C72.1201 102.294 74.0308 104.105 78.2358 106.675L77.361 109.269L61.0166 99.6617L61.876 97.0527C67.7692 101.02 77.3687 92.3719 86.6536 85.1359L79.7475 60.4121C78.4507 55.5164 76.4479 51.7641 73.2557 49.9455L74.0998 46.8838Z" fill="#F3A4A9" stroke="black" stroke-width="0.2" stroke-linecap="round" stroke-linejoin="round"/>
    <path d="M120.585 74.1628L119.718 77.2322C124.583 81.4603 126.049 81.8363 124.775 87.3074L116.81 123.595C115.951 127.639 113.741 127.271 108.799 124.654L107.947 127.186L127.637 138.781L128.543 136.187C125.788 134.231 123.939 132.65 123.348 130.816C122.918 129.389 123.417 127.877 124.115 124.884L131.543 90.3538C132.31 86.2025 134.505 86.2101 139.431 88.9035L140.283 85.7958L120.585 74.1628Z" fill="#F3A4A9" stroke="black" stroke-width="0.2" stroke-linecap="round" stroke-linejoin="round"/>
    <path d="M101.854 32.5268L102.169 32.1892L102.621 31.7057L103.059 31.2453C104.517 29.7527 106.169 28.4623 107.97 27.4086C108.623 27.0308 109.3 26.695 109.996 26.4034C111.774 25.6543 113.683 25.2606 115.613 25.2447C116.421 25.2427 117.228 25.3198 118.022 25.4749L108.269 20.1802C107.932 20.1802 107.586 20.1342 107.241 20.1342C105.313 20.1493 103.407 20.543 101.632 21.2929C100.934 21.5834 100.255 21.9165 99.5982 22.2904C97.797 23.344 96.1452 24.6344 94.6872 26.1271L93.4824 27.4316" fill="#F3A4A9"/>
    <path d="M101.854 32.5268L102.169 32.1892L102.621 31.7057L103.059 31.2453C104.517 29.7527 106.169 28.4623 107.97 27.4086C108.623 27.0308 109.3 26.695 109.996 26.4034C111.774 25.6543 113.683 25.2606 115.613 25.2447C116.421 25.2427 117.228 25.3198 118.022 25.4749L108.269 20.1802C107.932 20.1802 107.586 20.1342 107.241 20.1342C105.313 20.1493 103.407 20.543 101.632 21.2929C100.934 21.5834 100.255 21.9165 99.5982 22.2904C97.797 23.344 96.1452 24.6344 94.6872 26.1271L93.4824 27.4316" stroke="black" stroke-width="0.2" stroke-linecap="round" stroke-linejoin="round"/>
    <path d="M103.957 33.9617C104.251 34.3733 104.404 34.8683 104.395 35.3736C104.363 36.1145 104.124 36.8317 103.707 37.4444C103.289 38.0572 102.709 38.5413 102.031 38.842C101.458 39.101 100.953 39.4883 100.554 39.974C100.154 40.4597 99.8723 41.0307 99.7291 41.6428C99.5651 42.4601 99.1394 43.2017 98.5164 43.7555C97.8934 44.3093 97.107 44.6452 96.2761 44.7122C95.9506 44.7165 95.6282 44.6484 95.3323 44.5127C95.0366 44.3763 94.714 44.3081 94.3884 44.3132C93.5632 44.3427 92.7772 44.6729 92.1785 45.2417C91.5767 45.8142 90.7835 46.1424 89.9532 46.1625C89.4162 46.1778 88.894 45.9854 88.4952 45.6254L86.7764 44.0907C87.1129 44.2911 87.4973 44.3972 87.889 44.3976C88.7124 44.3698 89.4966 44.0392 90.0913 43.4691C90.6916 42.897 91.4803 42.5641 92.3089 42.533C92.6315 42.5331 92.9505 42.6011 93.2451 42.7325C93.5395 42.8733 93.8625 42.9442 94.1889 42.9397C95.0211 42.8742 95.8093 42.5391 96.4339 41.9852C97.0584 41.4312 97.4853 40.6887 97.6496 39.8703C97.7848 39.2433 98.075 38.6603 98.4937 38.1744C98.8898 37.6833 99.3976 37.2939 99.9747 37.0388C100.652 36.738 101.233 36.254 101.65 35.6412C102.068 35.0284 102.306 34.3112 102.338 33.5704C102.348 33.065 102.194 32.57 101.901 32.1585C101.605 31.7422 101.452 31.2416 101.463 30.7312C101.475 30.0887 101.657 29.4608 101.993 28.9126C102.409 28.2471 102.585 27.4591 102.492 26.6796C102.425 26.1971 102.198 25.751 101.847 25.4135L103.704 27.0556L104.011 27.3242C104.372 27.8174 104.567 28.4127 104.567 29.0239C104.567 29.6351 104.372 30.2304 104.011 30.7235C103.675 31.2686 103.492 31.8942 103.481 32.5345C103.484 33.0488 103.65 33.5489 103.957 33.9617Z" fill="#F3A4A9" stroke="black" stroke-width="0.2" stroke-linecap="round" stroke-linejoin="round"/>
    <path d="M85.8401 42.625H85.6482C85.1199 42.638 84.6066 42.4486 84.2133 42.0955L84.0828 41.9651L82.2412 40.3537C82.6146 40.6544 83.0817 40.8146 83.561 40.8064H83.7452C84.2509 40.7906 84.7445 40.9632 85.1301 41.2908C85.5158 41.6183 85.7661 42.0774 85.8324 42.579C85.8313 42.5947 85.8339 42.6105 85.8401 42.625Z" fill="#F3A4A9" stroke="black" stroke-width="0.2" stroke-linecap="round" stroke-linejoin="round"/>
    <path d="M100.213 24.8687C99.7218 24.874 99.2452 24.7014 98.8714 24.3826C98.4976 24.0638 98.2519 23.6204 98.1796 23.1345C98.118 22.7664 97.9679 22.4188 97.7422 22.1216L99.3613 23.5259L99.7066 23.8251C99.9696 24.1188 100.145 24.4804 100.213 24.8687Z" fill="#F3A4A9" stroke="black" stroke-width="0.2" stroke-linecap="round" stroke-linejoin="round"/>
    <path d="M99.6978 23.7867L99.3525 23.4875C99.4782 23.5744 99.594 23.6747 99.6978 23.7867Z" fill="#F3A4A9" stroke="black" stroke-width="0.2" stroke-linecap="round" stroke-linejoin="round"/>
    <path d="M101.901 32.1508C102.195 32.5623 102.348 33.0573 102.339 33.5627C102.307 34.3035 102.068 35.0207 101.651 35.6335C101.233 36.2463 100.653 36.7303 99.9751 37.0311C99.3972 37.2884 98.8894 37.6805 98.4942 38.1744C98.0911 38.6547 97.8118 39.2264 97.6808 39.8395C97.5164 40.658 97.0895 41.4005 96.465 41.9544C95.8405 42.5083 95.0523 42.8435 94.2201 42.9089C93.8937 42.9135 93.5707 42.8426 93.2762 42.7017C92.9816 42.5704 92.6626 42.5024 92.3401 42.5022C91.5114 42.5334 90.7227 42.8663 90.1224 43.4384C89.5277 44.0085 88.7435 44.3391 87.9202 44.3669C87.8445 43.8817 87.5965 43.4401 87.2216 43.1229C86.8467 42.8058 86.37 42.6345 85.879 42.6404C85.8754 42.6252 85.8754 42.6095 85.879 42.5943C85.8127 42.0927 85.5624 41.6336 85.1768 41.3061C84.7911 40.9786 84.2976 40.806 83.7918 40.8217H83.6077C83.507 40.042 83.6836 39.2516 84.1065 38.5888C84.4361 38.0413 84.6161 37.4168 84.6282 36.7778C84.6378 36.2712 84.4875 35.7745 84.1985 35.3583C83.905 34.9467 83.7517 34.4517 83.7612 33.9463C83.7917 33.2417 84.0089 32.5578 84.3904 31.9646C84.772 31.3713 85.3042 30.8901 85.9327 30.57L86.1246 30.4703C86.6988 30.2133 87.2055 29.8266 87.6049 29.3406C88.0044 28.8546 88.2857 28.2826 88.4266 27.6695C88.4424 27.5782 88.4655 27.4884 88.4957 27.4009C88.7078 26.6466 89.1458 25.9754 89.7508 25.4774C90.3557 24.9794 91.0987 24.6786 91.8797 24.6154C92.205 24.6126 92.5271 24.6807 92.8235 24.8149C93.1192 24.9514 93.4417 25.0196 93.7673 25.0145C94.5926 24.985 95.3786 24.6547 95.9773 24.086C96.5692 23.5106 97.3545 23.1768 98.1796 23.1498H98.2256C98.2979 23.6357 98.5436 24.0791 98.9174 24.3979C99.2912 24.7167 99.7678 24.8894 100.259 24.884C100.262 24.8966 100.262 24.9098 100.259 24.9224C100.333 25.4252 100.592 25.8825 100.985 26.2046C101.378 26.5268 101.877 26.6907 102.385 26.6642H102.5C102.593 27.4437 102.417 28.2317 102.001 28.8972C101.66 29.4491 101.475 30.0827 101.464 30.7312C101.454 31.239 101.607 31.7366 101.901 32.1508Z" fill="#F3A4A9" stroke="black" stroke-width="0.2" stroke-linecap="round" stroke-linejoin="round"/>
    <path d="M104.019 27.3319L103.712 27.0633C103.826 27.138 103.93 27.2284 104.019 27.3319Z" fill="#F3A4A9" stroke="black" stroke-width="0.2" stroke-linecap="round" stroke-linejoin="round"/>
    <path d="M101.901 32.1508C102.194 32.5623 102.348 33.0573 102.338 33.5627C102.306 34.3035 102.068 35.0207 101.65 35.6335C101.233 36.2463 100.652 36.7303 99.9747 37.0311C99.3967 37.2884 98.8889 37.6805 98.4937 38.1744C98.0906 38.6547 97.8113 39.2264 97.6803 39.8396C97.5159 40.658 97.0891 41.4005 96.4645 41.9544C95.84 42.5084 95.0518 42.8435 94.2196 42.9089C93.8932 42.9135 93.5702 42.8426 93.2757 42.7018C92.9811 42.5704 92.6622 42.5024 92.3396 42.5022C91.5109 42.5334 90.7222 42.8663 90.122 43.4384C89.5272 44.0085 88.743 44.3391 87.9197 44.3669C87.5279 44.3664 87.1436 44.2604 86.807 44.06C86.5592 43.9041 86.3479 43.6966 86.1877 43.4516C86.0274 43.2066 85.922 42.9299 85.8785 42.6404C85.8749 42.6252 85.8749 42.6095 85.8785 42.5943C85.8122 42.0927 85.5619 41.6336 85.1763 41.3061C84.7906 40.9786 84.2971 40.806 83.7914 40.8218H83.6072C83.1278 40.8299 82.6608 40.6697 82.2874 40.369C81.4126 39.6477 81.2208 38.1821 82.0495 36.7855C82.3859 36.2378 82.5688 35.6096 82.579 34.9669C82.5912 34.46 82.4406 33.9624 82.1492 33.5473C81.8538 33.1397 81.7002 32.6464 81.7119 32.1431C81.7428 31.401 81.9814 30.6824 82.4006 30.0693C82.8198 29.4561 83.4027 28.9729 84.0829 28.6747C84.658 28.4169 85.1653 28.0291 85.5648 27.5417C85.9643 27.0543 86.2451 26.4807 86.385 25.8662C86.5563 25.0511 86.9852 24.3126 87.6084 23.7599C88.2315 23.2072 89.0159 22.8696 89.8457 22.7969C90.1717 22.7959 90.4939 22.8667 90.7895 23.004C91.0842 23.1354 91.4031 23.2034 91.7257 23.2035C92.5535 23.1752 93.3423 22.845 93.9433 22.2751C94.515 21.6955 95.2796 21.346 96.0919 21.2929C96.486 21.286 96.8741 21.3897 97.2122 21.5921C97.4068 21.7083 97.5784 21.8592 97.7187 22.0372C97.9444 22.3344 98.0945 22.682 98.1561 23.0501C98.2283 23.536 98.4741 23.9794 98.8479 24.2981C99.2217 24.6169 99.6983 24.7896 100.19 24.7843H100.381C100.863 24.772 101.335 24.9265 101.717 25.2217L101.832 25.3291C102.183 25.6666 102.41 26.1127 102.476 26.5952C102.57 27.3746 102.394 28.1626 101.977 28.8282C101.633 29.4025 101.455 30.0614 101.463 30.7312C101.453 31.239 101.607 31.7366 101.901 32.1508Z" fill="#F3A4A9" stroke="black" stroke-width="0.2" stroke-linecap="round" stroke-linejoin="round"/>
    <path d="M95.8225 35.959C98.0592 33.2224 98.162 29.6059 96.0521 27.8814C93.9422 26.157 90.4185 26.9775 88.1818 29.7141C85.9451 32.4508 85.8423 36.0672 87.9522 37.7917C90.0621 39.5162 93.5857 38.6957 95.8225 35.959Z" fill="#F3A4A9" stroke="black" stroke-width="0.2" stroke-linecap="round" stroke-linejoin="round"/>
    <path d="M97.7336 22.0832L97.7106 22.0679L97.2041 21.6228" fill="#F3A4A9"/>
    <path d="M97.7336 22.0832L97.7106 22.0679L97.2041 21.6228" stroke="black" stroke-width="0.2" stroke-linecap="round" stroke-linejoin="round"/>
    <path d="M101.854 25.4135L101.739 25.3061" stroke="black" stroke-width="0.2" stroke-linecap="round" stroke-linejoin="round"/>
    <path d="M82.2414 40.354L82.2334 40.346" stroke="black" stroke-width="0.2" stroke-linecap="round" stroke-linejoin="round"/>
</svg>
