<svg width="200" height="200" viewBox="0 0 200 200" fill="none" xmlns="http://www.w3.org/2000/svg">
    <path d="M36.8848 44.9937L36.6465 45.043" stroke="black" stroke-width="0.2" stroke-linecap="round" stroke-linejoin="round"/>
    <path d="M39.6471 44.5663H39.417" stroke="black" stroke-width="0.2" stroke-linecap="round" stroke-linejoin="round"/>
    <path d="M38.0518 44.7636L37.8135 44.8047" stroke="black" stroke-width="0.2" stroke-linecap="round" stroke-linejoin="round"/>
    <path d="M36.6472 45.043L36.1787 45.1663" stroke="black" stroke-width="0.2" stroke-linecap="round" stroke-linejoin="round"/>
    <path d="M185.181 112.784L187.26 114.263C187.571 114.486 187.939 114.615 188.321 114.633C188.703 114.652 189.082 114.561 189.413 114.37L194.723 111.288C194.925 111.173 195.092 111.005 195.206 110.803C195.321 110.601 195.379 110.371 195.374 110.139C195.369 109.906 195.301 109.68 195.178 109.483C195.054 109.286 194.88 109.126 194.674 109.019L185.633 103.858L185.181 112.784Z" fill="black"/>
    <path d="M61.7237 178.223L69.2441 182.595C69.5282 182.77 69.8554 182.863 70.1892 182.863C70.5231 182.863 70.8503 182.77 71.1344 182.595L78.1452 178.551C78.2995 178.419 78.4243 178.256 78.5114 178.072C78.5985 177.889 78.6459 177.689 78.6505 177.486C78.6552 177.283 78.617 177.081 78.5384 176.893C78.4598 176.706 78.3426 176.537 78.1945 176.398L69.3016 169.371L61.9785 175.839C61.2963 176.267 60.8361 177.631 61.7237 178.223Z" fill="black"/>
    <path d="M12.9354 139.174L5.43152 143.703C5.30104 143.773 5.19204 143.878 5.11608 144.005C5.04011 144.133 5 144.278 5 144.426C5 144.575 5.04011 144.72 5.11608 144.847C5.19204 144.975 5.30104 145.079 5.43152 145.15L11.9245 148.947C12.1222 149.059 12.348 149.113 12.5752 149.101C12.8024 149.09 13.0215 149.013 13.2066 148.881L17.5051 145.75L12.9354 139.174Z" fill="black"/>
    <path d="M103.771 75.297L103.689 75.3463C101.976 74.6478 100.217 74.6686 98.373 74.5284C95.6279 74.3312 92.4716 75.3531 89.373 76.5284L62.6351 60.6262L32.3154 42.9226C32.3154 42.9226 36.2437 41.9785 38.8084 41.9281C39.1903 41.9206 39.7864 41.9281 39.7864 41.9281C43.1742 41.9449 46.4891 42.9132 49.3533 44.7225L71.8403 57.0674L78.021 60.6015L79.3442 61.3576L83.4537 63.7165L84.2756 64.2096L87.6125 66.1082L92.3137 68.7958L99.8833 73.1189L103.771 75.297Z" fill="#9C94F7" stroke="black" stroke-width="0.2" stroke-linecap="round" stroke-linejoin="round"/>
    <path d="M104.396 75.6586C104.158 75.5436 103.928 75.4449 103.689 75.3463L103.772 75.297L104.396 75.6586Z" fill="#9C94F7" stroke="black" stroke-width="0.2" stroke-linecap="round" stroke-linejoin="round"/>
    <path d="M138.283 67.2916C138.135 67.4725 137.88 67.7766 137.814 67.8752C137.888 67.7519 137.971 67.6368 138.053 67.5218L138.11 67.4396L138.193 67.3245C138.223 67.2854 138.25 67.2442 138.275 67.2012C138.307 67.1664 138.334 67.1277 138.357 67.0862L138.431 66.9711L138.488 66.8889L138.266 67.2012C138.276 67.2305 138.282 67.2609 138.283 67.2916Z" fill="#9C94F7" stroke="black" stroke-width="0.2" stroke-linecap="round" stroke-linejoin="round"/>
    <path d="M138.604 66.7575L138.505 66.8972" stroke="black" stroke-width="0.2" stroke-linecap="round" stroke-linejoin="round"/>
    <path d="M138.834 66.4286L138.612 66.7328L138.785 66.4944L138.834 66.4286Z" fill="#9C94F7" stroke="black" stroke-width="0.2" stroke-linecap="round" stroke-linejoin="round"/>
    <path d="M138.949 66.2725L138.842 66.4122C138.872 66.3616 138.908 66.3147 138.949 66.2725Z" fill="#9C94F7" stroke="black" stroke-width="0.2" stroke-linecap="round" stroke-linejoin="round"/>
    <path d="M129.151 128.103C129.155 128.082 129.155 128.059 129.151 128.038C129.15 128.024 129.15 128.01 129.151 127.997C129.151 127.947 129.151 127.898 129.151 127.857C129.151 127.857 129.151 127.799 129.151 127.758V127.528C129.155 127.462 129.155 127.397 129.151 127.331C129.151 127.227 129.151 127.128 129.151 127.035C129.146 126.958 129.146 126.881 129.151 126.805C129.155 126.747 129.155 126.69 129.151 126.632V126.419V126.205C128.946 124.561 128.773 122.917 128.625 121.274C128.625 121.274 128.625 121.208 128.625 121.183C128.699 121.676 128.773 122.178 128.839 122.671C128.904 123.164 128.978 123.657 129.036 124.142C129.093 124.627 129.151 125.186 129.217 125.876C129.258 126.262 129.291 126.698 129.324 127.019V127.15C129.324 127.15 129.324 127.216 129.324 127.265C129.324 127.471 129.373 127.824 129.381 128.087V128.227V128.391C129.381 128.391 129.381 128.449 129.381 128.482L129.151 128.103Z" fill="#9C94F7" stroke="black" stroke-width="0.2" stroke-linecap="round" stroke-linejoin="round"/>
    <path d="M129.209 128.539C129.214 128.558 129.214 128.578 129.209 128.597V128.539Z" fill="#9C94F7" stroke="black" stroke-width="0.2" stroke-linecap="round" stroke-linejoin="round"/>
    <path d="M139.178 65.9355L139.121 66.0095L139.063 66.0835L138.965 66.2232L138.858 66.3629L138.636 66.667L138.537 66.8068L138.315 67.1191C138.322 66.8576 138.409 66.6044 138.563 66.393C138.717 66.1816 138.932 66.0221 139.178 65.9355Z" fill="black"/>
    <path d="M104.396 75.6586C104.158 75.5436 103.928 75.4449 103.689 75.3463L103.772 75.297L104.396 75.6586Z" fill="black"/>
    <path d="M138.283 67.2916C138.135 67.4725 137.88 67.7766 137.814 67.8752C137.888 67.7519 137.971 67.6368 138.053 67.5218L138.11 67.4396C138.17 67.3634 138.225 67.2838 138.275 67.2012C138.282 67.2309 138.284 67.2613 138.283 67.2916Z" fill="black"/>
    <path d="M129.151 128.103C129.155 128.082 129.155 128.059 129.151 128.038C129.15 128.024 129.15 128.01 129.151 127.997C129.151 127.947 129.151 127.898 129.151 127.857C129.151 127.857 129.151 127.799 129.151 127.758V127.528C129.155 127.462 129.155 127.397 129.151 127.331C129.151 127.227 129.151 127.128 129.151 127.035C129.146 126.958 129.146 126.881 129.151 126.805C129.155 126.747 129.155 126.69 129.151 126.632V126.419V126.205C128.946 124.561 128.773 122.917 128.625 121.274C128.625 121.274 128.625 121.208 128.625 121.183C128.699 121.676 128.773 122.178 128.839 122.671C128.904 123.164 128.978 123.657 129.036 124.142C129.093 124.627 129.151 125.186 129.217 125.876C129.258 126.262 129.291 126.698 129.324 127.019V127.15C129.324 127.15 129.324 127.216 129.324 127.265C129.324 127.471 129.373 127.824 129.381 128.087V128.227V128.391C129.381 128.391 129.381 128.449 129.381 128.482L129.151 128.103Z" fill="black"/>
    <path d="M129.209 128.539C129.214 128.558 129.214 128.578 129.209 128.597V128.539Z" fill="black"/>
    <path d="M82.6895 168.944V174.253L70.5666 181.354L6.63965 144.385L12.6477 140.547V143.202L69.8926 176.275L82.6895 168.944Z" fill="black"/>
    <path d="M194.015 110.03L138.455 142.174C136.902 146.835 131.058 149.267 126.414 148.939L82.6895 174.253V168.943L186.774 108.896V106.299L187.654 106.775L194.015 110.03Z" fill="black"/>
    <path d="M104.396 75.6586C104.158 75.5436 103.928 75.4449 103.689 75.3463L103.772 75.297L104.396 75.6586Z" fill="#9C94F7"/>
    <path d="M129.151 128.103C129.155 128.082 129.155 128.059 129.151 128.038C129.15 128.024 129.15 128.01 129.151 127.997C129.151 127.947 129.151 127.898 129.151 127.857C129.151 127.857 129.151 127.799 129.151 127.758V127.528C129.155 127.462 129.155 127.397 129.151 127.331C129.151 127.227 129.151 127.128 129.151 127.035C129.146 126.958 129.146 126.881 129.151 126.805C129.155 126.747 129.155 126.69 129.151 126.632V126.419V126.205C128.946 124.561 128.773 122.917 128.625 121.274C128.625 121.274 128.625 121.208 128.625 121.183C128.699 121.676 128.773 122.178 128.839 122.671C128.904 123.164 128.978 123.657 129.036 124.142C129.093 124.627 129.151 125.186 129.217 125.876C129.258 126.262 129.291 126.698 129.324 127.019V127.15C129.324 127.15 129.324 127.216 129.324 127.265C129.324 127.471 129.373 127.824 129.381 128.087V128.227V128.391C129.381 128.391 129.381 128.449 129.381 128.482L129.151 128.103Z" fill="#9C94F7"/>
    <path d="M129.209 128.539C129.214 128.558 129.214 128.578 129.209 128.597V128.539Z" fill="#9C94F7"/>
    <path d="M69.8934 135.32V176.275L12.6484 143.202V102.247L34.2889 115.035L34.5355 115.175L36.4423 116.268L69.8934 135.32Z" fill="#7772D8" stroke="black" stroke-width="0.2" stroke-linecap="round" stroke-linejoin="round"/>
    <path d="M186.774 68.9436C186.774 82.8336 128.272 108.673 129.373 128.028C129.373 127.562 129.052 126.298 129.003 125.835C129.044 122.548 129.751 106.397 132.373 99.6167C135.866 90.5759 141.726 82.6035 149.501 75.453L150.134 74.8777L150.372 74.664L151.539 73.6367L151.909 73.3161C158.03 68.1866 164.636 63.6667 171.635 59.8206L186.774 68.9436Z" fill="#9C94F7" stroke="black" stroke-width="0.2" stroke-linecap="round" stroke-linejoin="round"/>
    <path d="M128.864 125.934C128.658 124.98 128.436 124.06 128.182 123.172C128.476 124.075 128.704 124.998 128.864 125.934Z" fill="#9C94F7" stroke="black" stroke-width="0.2" stroke-linecap="round" stroke-linejoin="round"/>
    <path d="M186.925 68.9354V108.896L185.486 109.718L82.8399 168.943L70.043 176.275V135.32C71.8731 134.224 73.6785 133.153 75.4593 132.106C78.0071 130.627 80.4975 129.205 82.9221 127.873C98.8011 119.128 111.828 113.901 120.014 115.487L123.861 117.641L124.255 117.863C128.084 120.133 129.049 125.407 129.458 128.473C129.458 127.793 129.4 127.115 129.4 126.435C129.186 83.7706 182.947 87.6171 186.925 68.9354Z" fill="#CAD1FB" stroke="black" stroke-width="0.2" stroke-linecap="round" stroke-linejoin="round"/>
    <path d="M158.962 49.621C158.041 50.1059 157.153 50.599 156.282 51.1086C149.643 54.8513 143.826 59.8941 139.179 65.9355L139.121 66.0095L139.064 66.0835L138.965 66.2232C138.93 66.2637 138.9 66.3078 138.875 66.3547L138.825 66.4205L138.653 66.6588L138.562 66.7821L138.505 66.8643L138.431 66.9793C138.408 67.0209 138.38 67.0595 138.348 67.0944C138.324 67.1374 138.297 67.1785 138.266 67.2177L138.184 67.3328L138.127 67.4149C138.044 67.53 137.962 67.6451 137.888 67.7684C131.206 77.5653 128.33 89.1869 127.804 102.14C127.59 108.448 128.733 120.249 129.373 126.528C128.492 120.775 125.667 110.066 123.873 104.528C119.376 92.037 115.518 82.5903 103.985 75.9133L100.18 73.7353L92.3882 68.7957L87.6869 66.1081L84.3501 64.2096L83.5282 63.7164L79.4187 61.3576L78.0954 60.6015L71.8408 57.0673C74.9887 40.3664 83.6268 26.5668 101.684 17L117.045 25.7203L158.962 49.621Z" fill="#CAD1FB" stroke="black" stroke-width="0.2" stroke-linecap="round" stroke-linejoin="round"/>
    <path d="M129.373 128.028C129.168 127.075 128.436 124.06 128.181 123.172V123.115C128.116 122.868 128.042 122.63 127.968 122.391C127.894 122.153 127.82 121.906 127.737 121.668C127.565 121.126 127.376 120.6 127.179 120.09C126.858 119.268 126.513 118.446 126.143 117.624C125.847 116.992 125.527 116.383 125.198 115.792C124.869 115.2 124.524 114.633 124.162 114.082C123.924 113.712 123.677 113.359 123.422 113.005C122.803 112.143 122.13 111.319 121.409 110.54L120.973 110.088C120.834 109.94 120.686 109.792 120.538 109.652C119.811 108.946 119.039 108.287 118.228 107.679C117.636 107.236 117.028 106.817 116.404 106.438C115.938 106.148 115.461 105.874 114.973 105.617L114.488 105.378L84.7195 88.3979L82.8538 87.3376L79.5662 85.4637L72.9335 81.683L71.7418 81.0008L69.3747 79.7022L69.3172 79.4557C69.2942 79.3855 69.275 79.3142 69.2597 79.242C69.2597 74.2903 66.3033 68.5833 64.5666 64.0287C64.3941 63.6342 64.2215 63.2068 64.0406 62.8452C64.0167 62.7834 63.9892 62.7231 63.9584 62.6644L63.8845 62.5C63.8845 62.5 63.8352 62.3932 63.8105 62.3274L63.7201 62.1466C63.7201 62.0808 63.6543 62.0069 63.6215 61.9329C63.5908 61.8593 63.5551 61.7879 63.5146 61.7192C63.5146 61.6452 63.4489 61.5713 63.416 61.4973C63.3831 61.4233 63.0461 60.9055 63.0215 60.8398H63.0626C63.5146 61.0864 67.0159 63.1246 71.3308 65.6479L87.3742 75.0503L87.8673 75.3462L88.0235 75.4366L88.3112 75.601L89.4454 76.2667C92.5439 75.0585 95.9466 74.0723 98.6835 74.2777C100.53 74.4101 102.345 74.8346 104.059 75.5352C105.889 76.3198 107.599 77.001 109.187 78.2228C116.366 83.9666 120.913 95.2474 123.924 103.611C126.449 111.402 128.356 119.89 129.373 128.028Z" fill="#7772D8" stroke="black" stroke-width="0.2" stroke-linecap="round" stroke-linejoin="round"/>
    <path d="M58.4603 72.9461L58.4443 72.938" stroke="black" stroke-width="0.2" stroke-linecap="round" stroke-linejoin="round"/>
    <path d="M58.4271 72.9297L58.4191 72.9217H58.4111" stroke="black" stroke-width="0.2" stroke-linecap="round" stroke-linejoin="round"/>
    <path d="M102.251 102.978C104.307 102.88 106.367 103.02 108.391 103.397C106.367 103.024 104.307 102.884 102.251 102.978Z" fill="#9C94F7" stroke="black" stroke-width="0.2" stroke-linecap="round" stroke-linejoin="round"/>
    <path d="M123.71 117.641C115.82 113.581 101.149 123.715 88.3687 130.454C86.4373 131.465 84.5551 132.402 82.7552 133.199C82.6823 133.241 82.6052 133.274 82.5251 133.298C81.7607 133.635 81.0046 133.947 80.2649 134.227L80.0594 134.309C76.065 135.805 72.539 136.388 69.8679 135.328L36.4168 116.268L34.5018 115.175L34.2634 115.036L12.6641 102.247C14.4208 103.049 16.4077 103.192 18.2612 102.65C19.0242 102.475 19.7762 102.256 20.5132 101.992C21.0227 101.819 21.5241 101.622 22.0254 101.4L68.1994 128.679L67.1392 123.657L75.4568 124.709L29.2088 97.3895C30.269 96.6826 31.2306 95.984 32.0772 95.3429C33.1959 94.5542 34.2338 93.6567 35.1757 92.6636L40.4112 95.6881L46.5754 99.2058L52.7478 102.724L54.4738 103.702L56.3724 104.787L75.7855 115.849C75.9664 115.668 76.1554 115.488 76.3362 115.323C76.517 115.159 76.7882 114.904 77.0102 114.707C77.2321 114.509 77.454 114.296 77.6841 114.107C77.9142 113.918 78.1279 113.712 78.3581 113.523C78.5882 113.334 78.8101 113.137 79.032 112.956C79.4841 112.578 79.9361 112.216 80.3964 111.863C80.6265 111.682 80.8484 111.51 81.0785 111.345C81.3087 111.181 81.5388 111 81.7689 110.836L82.4429 110.342L83.1333 109.874L83.8812 109.373L84.5058 108.978L85.1469 108.584C85.64 108.288 86.125 108.008 86.6263 107.762C86.84 107.638 87.0619 107.523 87.2838 107.408L87.8181 107.121L88.4098 106.817C88.8947 106.586 89.3714 106.356 89.8564 106.143L90.555 105.839C91.0234 105.625 91.4919 105.436 91.9686 105.263L92.6755 105L93.3823 104.754C93.859 104.597 94.3275 104.441 94.7959 104.31L95.4946 104.121C95.963 103.989 96.4315 103.866 96.9 103.767C97.3548 103.669 97.8068 103.578 98.2561 103.496L98.9218 103.389L98.2561 103.504L119.798 115.562L123.71 117.641Z" fill="#9C94F7" stroke="black" stroke-width="0.2" stroke-linecap="round" stroke-linejoin="round"/>
    <path d="M123.398 113.005C122.779 112.143 122.106 111.319 121.385 110.54" stroke="black" stroke-width="0.2" stroke-linecap="round" stroke-linejoin="round"/>
    <path d="M125.173 115.792C125.502 116.383 125.822 116.991 126.118 117.624" stroke="black" stroke-width="0.2" stroke-linecap="round" stroke-linejoin="round"/>
    <path d="M126.127 117.625C126.494 118.408 126.839 119.23 127.163 120.09C126.842 119.219 126.497 118.414 126.127 117.625Z" fill="#9C94F7" stroke="black" stroke-width="0.2" stroke-linecap="round" stroke-linejoin="round"/>
    <path d="M129.373 128.028C128.674 122.744 126.637 119.359 124.105 117.855L123.711 117.633L119.864 115.479L98.3223 103.422L98.988 103.307C99.4318 103.233 99.8674 103.176 100.303 103.126L101.61 103.011L102.267 102.97C104.323 102.875 106.383 103.016 108.407 103.389L108.678 103.447C109.04 103.513 109.393 103.595 109.747 103.685C111.376 104.083 112.958 104.656 114.464 105.395L114.949 105.633C115.431 105.891 115.908 106.165 116.379 106.455C117.004 106.833 117.612 107.277 118.204 107.696C119.015 108.303 119.787 108.962 120.513 109.669C120.661 109.808 120.809 109.956 120.949 110.104L121.385 110.556C122.106 111.336 122.779 112.159 123.398 113.022C123.653 113.375 123.9 113.729 124.138 114.099C124.5 114.649 124.845 115.225 125.174 115.808C125.502 116.392 125.823 117.008 126.119 117.641C126.489 118.463 126.834 119.235 127.154 120.107C127.352 120.616 127.541 121.142 127.713 121.685C127.795 121.923 127.869 122.161 127.943 122.408C128.478 124.19 129.122 126.192 129.373 128.028Z" fill="#9C94F7" stroke="black" stroke-width="0.2" stroke-linecap="round" stroke-linejoin="round"/>
    <path d="M124.155 117.887L124.105 117.863" stroke="black" stroke-width="0.2" stroke-linecap="round" stroke-linejoin="round"/>
    <path d="M58.46 72.9463C59.1178 73.2754 59.7571 73.6403 60.375 74.0394" stroke="black" stroke-width="0.2" stroke-linecap="round" stroke-linejoin="round"/>
    <path d="M180.545 55.1194C177.446 56.6399 174.446 58.2015 171.57 59.8206C164.569 63.6627 157.962 68.1829 151.844 73.3161C151.721 73.4312 151.598 73.5298 151.474 73.6367C151.08 73.9819 150.652 74.3188 150.307 74.664L150.069 74.8777L149.436 75.4531C141.702 82.6035 135.825 90.5923 132.332 99.6332C129.711 106.414 129.455 124.2 129.373 127.528C129.307 126.83 128.823 124.495 128.782 124.117C128.659 123.148 128.527 122.161 128.371 121.15C127.73 114.871 127.516 108.555 127.73 102.247C128.256 89.2937 131.132 77.6722 137.814 67.8752C137.812 67.8588 137.812 67.8422 137.814 67.8259L138.25 67.2916V67.2012C138.273 67.1597 138.3 67.1211 138.332 67.0862L138.464 66.8889L138.571 66.7492L138.792 66.4369C138.818 66.3899 138.848 66.3459 138.883 66.3054L138.982 66.1657L139.039 66.0917C139.06 66.0657 139.079 66.0382 139.097 66.0095C143.764 59.9455 149.61 54.8881 156.282 51.1414L156.545 50.9853C156.784 50.8456 157.022 50.7058 157.269 50.5743L158.148 50.0812C158.403 49.9415 119.519 27.2408 117.136 25.8271L117.021 25.7532C119.305 24.5203 121.672 23.2875 124.097 22.1533L126.908 23.6984L180.545 55.1194Z" fill="#9C94F7" stroke="black" stroke-width="0.2" stroke-linecap="round" stroke-linejoin="round"/>
    <path d="M75.6865 59.2536C79.2371 42.1006 87.9245 29.1147 102.349 20.7889" stroke="black" stroke-width="0.2" stroke-linecap="round" stroke-linejoin="round"/>
    <path d="M79.3701 61.3576C83.0111 44.5827 91.6985 31.8762 105.868 23.6655" stroke="black" stroke-width="0.2" stroke-linecap="round" stroke-linejoin="round"/>
    <path d="M83.5029 63.7164C87.1275 46.884 95.782 34.1282 110.025 25.9093" stroke="black" stroke-width="0.2" stroke-linecap="round" stroke-linejoin="round"/>
    <path d="M87.6953 66.1081C91.3445 49.3579 100.024 36.6596 114.177 28.4572" stroke="black" stroke-width="0.2" stroke-linecap="round" stroke-linejoin="round"/>
    <path d="M92.3887 68.7958C95.9803 51.8237 104.651 38.9693 118.969 30.701" stroke="black" stroke-width="0.2" stroke-linecap="round" stroke-linejoin="round"/>
    <path d="M117.432 88.5787C120.637 70.2012 129.464 56.3769 144.554 47.6484" stroke="black" stroke-width="0.2" stroke-linecap="round" stroke-linejoin="round"/>
    <path d="M120.873 96.5284C123.339 75.6441 132.587 59.3604 149.041 49.884" stroke="black" stroke-width="0.2" stroke-linecap="round" stroke-linejoin="round"/>
    <path d="M70.7147 79.2667C70.5002 74.4352 70.6017 69.5949 71.0188 64.7767C71.227 62.4425 71.5256 60.1549 71.9147 57.9139" stroke="black" stroke-width="0.2" stroke-linecap="round" stroke-linejoin="round" stroke-dasharray="0.8 1.6"/>
    <path d="M53.6357 47.3196C57.3469 50.8155 60.408 54.9424 62.6766 59.5083" stroke="black" stroke-width="0.2" stroke-linecap="round" stroke-linejoin="round" stroke-dasharray="0.8 1.6"/>
    <path d="M170.097 58.67L156.495 50.9278" stroke="black" stroke-width="0.2" stroke-linecap="round" stroke-linejoin="round" stroke-dasharray="0.8 1.6"/>
    <path d="M139.631 68.4259L149.929 74.3353" stroke="black" stroke-width="0.2" stroke-linecap="round" stroke-linejoin="round" stroke-dasharray="0.8 1.6"/>
    <path d="M114.464 105.386C112.958 104.648 111.376 104.075 109.746 103.677C109.393 103.586 109.04 103.504 108.678 103.438L108.407 103.381C106.383 103.008 104.323 102.867 102.267 102.962L101.61 103.003L100.303 103.118C99.8673 103.167 99.4317 103.225 98.9879 103.299L98.3222 103.414L96.966 103.677C96.4976 103.784 96.0291 103.907 95.5606 104.03L94.862 104.219L93.4483 104.663L92.7415 104.91L92.0347 105.173C91.5662 105.353 91.0895 105.543 90.6128 105.748L89.9224 106.052C89.4457 106.266 88.9608 106.496 88.4841 106.734L87.8759 107.03L87.3499 107.318C87.1279 107.425 86.906 107.548 86.6841 107.671C86.191 107.951 85.7061 108.23 85.2129 108.534C84.9992 108.649 84.7856 108.789 84.5801 108.921L83.9472 109.315L83.1993 109.816L82.5089 110.285L81.8267 110.778C81.5884 110.942 81.3665 111.115 81.1363 111.288C80.9062 111.46 80.6761 111.625 80.4542 111.805C79.9939 112.159 79.5419 112.52 79.0898 112.89L78.4159 113.466C78.194 113.646 77.9638 113.844 77.7419 114.049C77.52 114.255 77.2899 114.435 77.068 114.649L76.4022 115.257L75.8351 115.792L56.3973 104.753L54.4988 103.677L52.7728 102.682L46.6086 99.1728L40.4361 95.6634L35.176 92.6634L33.3678 91.6361L19.0176 83.1952C32.1679 70.6038 47.5537 67.4313 58.411 72.9216H58.4603L69.2846 79.1926L114.464 105.386Z" fill="#9C94F7" stroke="black" stroke-width="0.2" stroke-linecap="round" stroke-linejoin="round"/>
    <path d="M35.6777 92.1868C46.8226 81.042 58.3867 81.5022 65.6769 84.6254L97.3034 102.65" stroke="black" stroke-width="0.2" stroke-linecap="round" stroke-linejoin="round" stroke-dasharray="0.8 1.6"/>
    <path d="M88.5986 165.722L95.6834 161.67" stroke="black" stroke-width="0.2" stroke-linecap="round" stroke-linejoin="round" stroke-dasharray="2.1 3.5"/>
    <path d="M22.0094 101.4C21.508 101.622 21.0067 101.819 20.4971 101.992C19.7602 102.256 19.0082 102.475 18.2451 102.65V99.1729L22.0094 101.4Z" fill="#7772D8" stroke="black" stroke-width="0.2" stroke-linecap="round" stroke-linejoin="round"/>
    <path d="M67.1232 123.657L68.1834 128.679L18.2451 99.1729L26.275 95.6634L75.4407 124.709L67.1232 123.657Z" fill="#CAD1FB" stroke="black" stroke-width="0.2" stroke-linecap="round" stroke-linejoin="round"/>
</svg>
