<svg width="200" height="200" viewBox="0 0 200 200" fill="none" xmlns="http://www.w3.org/2000/svg">
    <path d="M55.1035 74.6646C46.1035 82.3926 38.5115 91.1206 33.1755 100.361C15.0475 68.9606 29.8155 43.4646 66.1595 43.2486C60.9515 52.4246 57.2635 63.1926 55.1035 74.6646Z" fill="#9FEDFE"/>
    <path d="M133.072 157.488C138.288 148.328 141.968 137.544 144.128 126.064C153.128 118.336 160.72 109.608 166.056 100.36C184.192 131.776 169.416 157.264 133.072 157.488Z" fill="#9FEDFE"/>
    <path d="M132.591 43.2486C121.983 43.2486 110.711 45.3846 99.6152 49.1926C88.5192 45.3846 77.2552 43.2486 66.6392 43.2486H66.1592L66.3992 42.8246C84.6072 11.2806 114.255 11.4646 132.591 43.2486Z" fill="#9FEDFE"/>
    <path d="M132.856 157.904C114.64 189.448 85.0002 189.264 66.6562 157.488C77.2642 157.488 88.5362 155.344 99.6322 151.536C110.728 155.344 122.032 157.488 132.616 157.488H133.088L132.856 157.904Z" fill="#9FEDFE"/>
    <path d="M133.072 157.489H132.6C121.984 157.489 110.712 155.345 99.6162 151.537C88.5202 155.345 77.2162 157.489 66.6403 157.489C61.3843 148.385 57.6243 137.681 55.3603 126.289C52.0438 109.248 51.957 91.7368 55.1043 74.6646C57.2643 63.1926 60.9523 52.4006 66.1603 43.2486H66.6403C77.2562 43.2486 88.5202 45.3846 99.6162 49.1926C110.712 45.3846 122.016 43.2486 132.592 43.2486C137.848 52.3446 141.608 63.0566 143.872 74.4486C147.185 91.4892 147.272 109 144.128 126.073C141.968 137.545 138.288 148.329 133.072 157.489Z" fill="#51C4EA"/>
    <path d="M66.6396 157.488C29.9517 157.488 14.9677 131.888 33.1757 100.36C38.5676 109.696 46.2556 118.504 55.3596 126.288C57.6556 137.68 61.3836 148.424 66.6396 157.488Z" fill="#9FEDFE"/>
    <path d="M166.056 100.361C160.672 91.0326 152.976 82.2245 143.872 74.4405C141.608 63.0565 137.848 52.3445 132.592 43.2405C169.288 43.2405 184.272 68.8165 166.056 100.361Z" fill="#9FEDFE"/>
    <path d="M166.056 100.361C160.72 109.609 153.128 118.337 144.128 126.065C131.008 137.256 115.911 145.896 99.6157 151.537C88.5197 155.345 77.2157 157.489 66.6398 157.489C61.3838 148.385 57.6238 137.681 55.3598 126.289C46.2558 118.505 38.5598 109.697 33.1758 100.361C38.5118 91.1206 46.1038 82.3926 55.1038 74.6646C68.2308 63.4915 83.3261 54.8641 99.6157 49.2246C110.712 45.4166 122.016 43.2806 132.592 43.2806C137.848 52.3766 141.608 63.0886 143.872 74.4806C152.976 82.2246 160.672 91.0326 166.056 100.361Z" fill="#51C4EA"/>
    <path d="M166.055 100.369C184.271 131.913 169.255 157.489 132.599 157.489C95.9432 157.489 51.3913 131.889 33.1833 100.369C14.9753 68.8485 29.9833 43.2486 66.6393 43.2486C103.295 43.2486 147.839 68.8166 166.055 100.369Z" stroke="black" stroke-width="0.2" stroke-linecap="round" stroke-linejoin="round"/>
    <path d="M100.128 181.451C125.978 181.288 146.707 144.857 146.425 100.078C146.144 55.3 124.96 19.1317 99.1088 19.2941C73.258 19.4565 52.5298 55.8882 52.8112 100.667C53.0925 145.445 74.2768 181.613 100.128 181.451Z" stroke="black" stroke-width="0.2" stroke-linecap="round" stroke-linejoin="round"/>
    <path d="M40.4882 151.561C35.8458 148.98 31.9787 145.204 29.2882 140.625C22.9442 129.641 24.4082 115.153 33.4002 99.8246C42.2002 84.8006 57.3041 70.6486 75.8801 59.9766C94.4561 49.3046 114.344 43.3686 131.88 43.2406C140.92 43.1766 148.824 44.6486 155.368 47.6166C161.912 50.5846 166.696 54.8166 169.84 60.2486C176.184 71.2326 174.728 85.7206 165.728 101.049C156.928 116.073 141.824 130.225 123.248 140.897C104.672 151.569 84.8561 157.513 67.2561 157.633C58.2161 157.705 50.3202 156.225 43.7762 153.257C42.6516 152.748 41.5541 152.182 40.4882 151.561ZM156.56 52.9366C150.256 49.2886 141.888 47.4006 131.952 47.4726C97.1361 47.7206 54.5682 72.1686 37.0722 101.969C28.8562 115.921 27.4322 128.905 32.9762 138.513C38.5202 148.121 50.7602 153.529 67.2561 153.417C102.08 153.161 144.64 128.713 162.136 98.9126C170.328 84.9606 171.784 71.9846 166.232 62.3686C163.904 58.4204 160.566 55.1645 156.56 52.9366Z" fill="black"/>
    <path d="M99.376 19.2886V19.6886" stroke="black" stroke-width="0.2" stroke-linecap="round" stroke-linejoin="round"/>
    <path d="M99.376 21.2806V180.249" stroke="black" stroke-width="0.2" stroke-linecap="round" stroke-linejoin="round" stroke-dasharray="0.79 1.59"/>
    <path d="M99.376 181.041V181.441" stroke="black" stroke-width="0.2" stroke-linecap="round" stroke-linejoin="round"/>
    <path d="M165.672 61.4566L33.1758 139.321" stroke="black" stroke-width="0.2" stroke-linecap="round" stroke-linejoin="round" stroke-dasharray="0.8 1.6"/>
    <path d="M29.0723 60.4165L170 140.609" stroke="black" stroke-width="0.2" stroke-linecap="round" stroke-linejoin="round" stroke-dasharray="0.8 1.6"/>
    <path d="M113.208 108.753C117.812 108.753 121.544 105.02 121.544 100.417C121.544 95.8127 117.812 92.0806 113.208 92.0806C108.604 92.0806 104.872 95.8127 104.872 100.417C104.872 105.02 108.604 108.753 113.208 108.753Z" fill="#CBFDFD" stroke="black" stroke-width="0.2" stroke-linecap="round" stroke-linejoin="round"/>
    <path d="M85.8233 108.753C90.4271 108.753 94.1593 105.02 94.1593 100.417C94.1593 95.8127 90.4271 92.0806 85.8233 92.0806C81.2195 92.0806 77.4873 95.8127 77.4873 100.417C77.4873 105.02 81.2195 108.753 85.8233 108.753Z" fill="#CBFDFD" stroke="black" stroke-width="0.2" stroke-linecap="round" stroke-linejoin="round"/>
    <path d="M99.6075 122.44C104.211 122.44 107.943 118.708 107.943 114.104C107.943 109.501 104.211 105.768 99.6075 105.768C95.0036 105.768 91.2715 109.501 91.2715 114.104C91.2715 118.708 95.0036 122.44 99.6075 122.44Z" fill="#CBFDFD" stroke="black" stroke-width="0.2" stroke-linecap="round" stroke-linejoin="round"/>
    <path d="M99.4317 95.0565C104.036 95.0565 107.768 91.3243 107.768 86.7205C107.768 82.1166 104.036 78.3845 99.4317 78.3845C94.8279 78.3845 91.0957 82.1166 91.0957 86.7205C91.0957 91.3243 94.8279 95.0565 99.4317 95.0565Z" fill="#CBFDFD" stroke="black" stroke-width="0.2" stroke-linecap="round" stroke-linejoin="round"/>
    <path d="M109.2 118.432C113.804 118.432 117.536 114.7 117.536 110.096C117.536 105.493 113.804 101.76 109.2 101.76C104.596 101.76 100.864 105.493 100.864 110.096C100.864 114.7 104.596 118.432 109.2 118.432Z" fill="#CBFDFD" stroke="black" stroke-width="0.2" stroke-linecap="round" stroke-linejoin="round"/>
    <path d="M89.8399 99.0725C94.4437 99.0725 98.1759 95.3403 98.1759 90.7365C98.1759 86.1327 94.4437 82.4005 89.8399 82.4005C85.2361 82.4005 81.5039 86.1327 81.5039 90.7365C81.5039 95.3403 85.2361 99.0725 89.8399 99.0725Z" fill="#CBFDFD" stroke="black" stroke-width="0.2" stroke-linecap="round" stroke-linejoin="round"/>
    <path d="M89.8956 118.497C94.4994 118.497 98.2316 114.764 98.2316 110.161C98.2316 105.557 94.4994 101.825 89.8956 101.825C85.2917 101.825 81.5596 105.557 81.5596 110.161C81.5596 114.764 85.2917 118.497 89.8956 118.497Z" fill="#CBFDFD" stroke="black" stroke-width="0.2" stroke-linecap="round" stroke-linejoin="round"/>
    <path d="M109.136 99.0084C113.74 99.0084 117.472 95.2763 117.472 90.6724C117.472 86.0686 113.74 82.3364 109.136 82.3364C104.532 82.3364 100.8 86.0686 100.8 90.6724C100.8 95.2763 104.532 99.0084 109.136 99.0084Z" fill="#CBFDFD" stroke="black" stroke-width="0.2" stroke-linecap="round" stroke-linejoin="round"/>
    <path d="M99.504 108.753C104.108 108.753 107.84 105.02 107.84 100.417C107.84 95.8127 104.108 92.0806 99.504 92.0806C94.9001 92.0806 91.168 95.8127 91.168 100.417C91.168 105.02 94.9001 108.753 99.504 108.753Z" fill="#CBFDFD" stroke="black" stroke-width="0.2" stroke-linecap="round" stroke-linejoin="round"/>
    <path d="M167.576 69.1526C172.401 69.1526 176.312 65.2413 176.312 60.4166C176.312 55.5918 172.401 51.6806 167.576 51.6806C162.751 51.6806 158.84 55.5918 158.84 60.4166C158.84 65.2413 162.751 69.1526 167.576 69.1526Z" fill="#CBFDFD" stroke="black" stroke-width="0.2" stroke-linecap="round" stroke-linejoin="round"/>
    <path d="M31.736 148.856C36.5607 148.856 40.472 144.945 40.472 140.12C40.472 135.296 36.5607 131.384 31.736 131.384C26.9112 131.384 23 135.296 23 140.12C23 144.945 26.9112 148.856 31.736 148.856Z" fill="#CBFDFD" stroke="black" stroke-width="0.2" stroke-linecap="round" stroke-linejoin="round"/>
</svg>
