<svg width="165" height="66" viewBox="0 0 165 66" fill="none" xmlns="http://www.w3.org/2000/svg">
<path d="M0.379414 61.3296C1.6613 59.1356 3.01715 56.6458 4.44694 53.8601C5.87674 51.0498 7.33119 48.0423 8.81029 44.8376C10.2894 41.6082 11.7685 38.2063 13.2476 34.6318C14.7267 31.0573 16.1565 27.3965 17.537 23.6495C18.9175 19.8778 20.224 16.0444 21.4566 12.1495C22.6892 8.25449 23.7985 4.38417 24.7846 0.538508C25.4995 1.22876 26.239 1.919 27.0032 2.60925C27.7921 3.27485 28.5563 3.94044 29.2959 4.60604C30.0354 5.24698 30.7256 5.88793 31.3666 6.52887C32.0322 7.14516 32.5869 7.72448 33.0306 8.26681C32.1185 10.9292 31.0584 13.7395 29.8505 16.6977C28.6426 19.6312 27.3607 22.6264 26.0048 25.6832C24.649 28.7154 23.2439 31.7352 21.7894 34.7427C20.3596 37.7502 18.9421 40.6345 17.537 43.3955C16.1565 46.1565 14.8376 48.7449 13.5804 51.1608C12.3232 53.552 11.2015 55.6597 10.2154 57.4839C11.6945 57.4839 13.4448 57.4962 15.4663 57.5209C17.4877 57.5209 19.6817 57.5332 22.0483 57.5579C24.4148 57.5825 26.9046 57.6195 29.5177 57.6688C32.1308 57.7181 34.7685 57.7797 37.4309 57.8537C37.0365 58.396 36.5804 58.9877 36.0627 59.6286C35.5451 60.2696 34.9904 60.9228 34.3988 61.5884C33.8318 62.2787 33.2401 62.9443 32.6238 63.5852C32.0322 64.2508 31.4405 64.8671 30.8489 65.4341C28.6303 65.3108 26.4856 65.1506 24.4148 64.9534C22.3687 64.7562 20.3843 64.522 18.4614 64.2508C16.5386 64.0043 14.6527 63.7455 12.8039 63.4743C10.9796 63.2031 9.16774 62.9319 7.36817 62.6608C7.097 63.1538 6.87514 63.5113 6.70257 63.7331C6.55466 63.955 6.49303 64.0413 6.51769 63.992L0.379414 61.3296ZM68.3072 49.9035C66.0392 52.1222 63.8945 53.9834 61.8731 55.4871C59.8763 56.9909 57.9658 58.1988 56.1415 59.1109C54.3173 60.023 52.567 60.6763 50.8907 61.0707C49.2391 61.4652 47.6244 61.6624 46.0467 61.6624C45.3811 61.6624 44.6415 61.4159 43.828 60.9228C43.0145 60.4298 42.2626 59.8258 41.5724 59.1109C40.8575 58.4207 40.2659 57.6935 39.7975 56.9293C39.3291 56.1651 39.0949 55.5118 39.0949 54.9694C39.0949 52.948 39.3784 51.0991 39.9454 49.4228C40.4877 47.7219 41.2149 46.1934 42.1271 44.8376C43.0392 43.4818 44.0745 42.2862 45.2332 41.2508C46.4165 40.2154 47.6367 39.3526 48.8939 38.6624C50.1758 37.9721 51.4454 37.4544 52.7026 37.1093C53.9599 36.7642 55.1185 36.5916 56.1785 36.5916C56.9427 36.5916 57.6946 36.8135 58.4342 37.2572C59.1984 37.7009 59.8886 38.2433 60.5049 38.8842C61.1212 39.5252 61.6142 40.2031 61.984 40.918C62.3784 41.6082 62.5756 42.2122 62.5756 42.7299C62.5756 43.568 62.2182 44.4308 61.5033 45.3183C60.813 46.1811 59.827 47.0686 58.5451 47.9807C57.2632 48.8928 55.7225 49.8296 53.9229 50.791C52.1233 51.7278 50.1389 52.6768 47.9695 53.6383C47.8956 54.2299 47.8586 54.8092 47.8586 55.3762C47.8586 56.1404 48.0188 56.6581 48.3393 56.9293C48.6844 57.2004 49.313 57.336 50.2251 57.336C51.8521 57.336 53.3806 57.0648 54.8104 56.5225C56.2648 55.9802 57.6576 55.2776 58.9888 54.4148C60.32 53.552 61.6019 52.5659 62.8345 51.4566C64.0671 50.3473 65.2873 49.2256 66.4953 48.0916L68.3072 49.9035ZM55.2911 40.6591C54.798 40.6591 54.2557 40.9303 53.664 41.4726C53.0724 41.9903 52.4808 42.6806 51.8891 43.5434C51.2975 44.4062 50.7305 45.4046 50.1882 46.5386C49.6458 47.6479 49.1774 48.8065 48.783 50.0145C49.6951 49.4228 50.5826 48.7942 51.4454 48.1286C52.3329 47.463 53.1217 46.7728 53.812 46.0579C54.5022 45.3183 55.0569 44.5664 55.4759 43.8022C55.895 43.038 56.1046 42.2738 56.1046 41.5096C56.1046 41.2878 56.0306 41.0905 55.8827 40.918C55.7594 40.7454 55.5622 40.6591 55.2911 40.6591ZM87.3506 55.746C87.3506 55.8939 87.4245 55.9678 87.5725 55.9678C87.7943 55.9678 88.1641 55.8076 88.6818 55.4871C89.1995 55.1667 89.7911 54.7599 90.4567 54.2669C91.1223 53.7738 91.8249 53.2192 92.5644 52.6029C93.3286 51.9866 94.0559 51.3826 94.7461 50.791C95.4363 50.1993 96.0526 49.657 96.595 49.164C97.162 48.6709 97.5934 48.2888 97.8892 48.0177C98.1111 48.2395 98.3822 48.5354 98.7027 48.9051C99.0478 49.2749 99.356 49.6077 99.6271 49.9035C99.0355 50.4459 98.3206 51.1115 97.4824 51.9003C96.6689 52.6645 95.7815 53.4657 94.8201 54.3039C93.8833 55.142 92.9095 55.9802 91.8988 56.8183C90.8881 57.6318 89.902 58.3591 88.9406 59C87.9792 59.6409 87.0671 60.1586 86.2043 60.5531C85.3415 60.9721 84.5896 61.1817 83.9487 61.1817C83.5049 61.1817 83.0119 61.0954 82.4696 60.9228C81.9519 60.7503 81.4712 60.5038 81.0274 60.1833C80.5837 59.8875 80.2139 59.53 79.9181 59.1109C79.6223 58.6919 79.4744 58.2235 79.4744 57.7058C79.4744 57.5086 79.462 57.2744 79.4374 57.0032C79.4374 56.7074 79.462 56.3376 79.5114 55.8939C79.5607 55.4255 79.6593 54.8708 79.8072 54.2299C79.9551 53.5643 80.1769 52.7508 80.4728 51.7894C79.6593 52.6522 78.6978 53.552 77.5885 54.4887C76.5038 55.4255 75.3575 56.313 74.1496 57.1511C72.9417 57.9893 71.7214 58.7412 70.4888 59.4068C69.2809 60.097 68.1592 60.6147 67.1239 60.9598C67.0006 61.0091 66.902 61.0338 66.8281 61.0338C66.7541 61.0338 66.6801 61.0338 66.6062 61.0338C66.3597 61.0338 66.0392 60.9105 65.6448 60.664C65.2257 60.4175 64.8189 60.0847 64.4245 59.6656C64.0301 59.2712 63.6973 58.8151 63.4261 58.2974C63.1303 57.7797 62.9824 57.2621 62.9824 56.7444C62.9824 56.5965 63.0563 56.1034 63.2043 55.2653C63.3522 54.4271 63.7096 53.3671 64.2766 52.0852C64.8189 50.7787 65.6324 49.3242 66.7171 47.7219C67.8018 46.0948 69.2809 44.4308 71.1544 42.7299C72.1158 41.8671 73.1512 41.0536 74.2605 40.2894C75.1973 39.6484 76.2697 38.9952 77.4776 38.3296C78.6855 37.664 79.9551 37.1339 81.2863 36.7395C81.3356 36.7395 81.3726 36.7272 81.3972 36.7025C81.4465 36.6779 81.5081 36.6902 81.5821 36.7395C81.8779 36.8381 82.223 36.9984 82.6175 37.2202C83.0365 37.4174 83.4433 37.6393 83.8377 37.8858C84.2568 38.1077 84.6143 38.3419 84.9101 38.5884C85.2305 38.8103 85.4401 38.9952 85.5387 39.1431C85.5633 39.1924 85.5633 39.2293 85.5387 39.254L85.4647 39.3279C84.3554 39.9196 83.3077 40.5852 82.3216 41.3247C81.3356 42.0396 80.4604 42.7176 79.6962 43.3585C78.8088 44.1227 77.9829 44.8746 77.2187 45.6141C75.4192 47.3891 74.1743 48.9298 73.484 50.2363C72.7938 51.5182 72.4486 52.4426 72.4486 53.0096C72.4486 53.4287 72.6212 53.6383 72.9663 53.6383C73.3115 53.6383 73.7429 53.5027 74.2605 53.2315C74.8029 52.9357 75.4068 52.5536 76.0724 52.0852C76.738 51.5922 77.4653 51.0252 78.2541 50.3842C79.0676 49.7186 79.9058 49.0284 80.7686 48.3135C81.5328 47.6972 82.2723 47.0316 82.9872 46.3167C83.6035 45.7251 84.2445 45.0471 84.9101 44.2829C85.5757 43.5187 86.1427 42.7422 86.611 41.9534C86.611 41.9287 86.6234 41.9041 86.648 41.8794C86.6727 41.8547 86.7096 41.8547 86.759 41.8794C87.0301 42.0766 87.3383 42.4094 87.6834 42.8778C88.0285 43.3215 88.349 43.8146 88.6448 44.3569C88.9406 44.8992 89.1871 45.4292 89.3844 45.9469C89.6062 46.44 89.7172 46.8221 89.7172 47.0932C89.1502 48.2519 88.7064 49.3119 88.386 50.2733C88.0901 51.2101 87.856 52.0359 87.6834 52.7508C87.5355 53.4657 87.4369 54.082 87.3876 54.5997C87.3629 55.0927 87.3506 55.4748 87.3506 55.746ZM119.928 54.8955C119.928 55.5118 120.125 55.8199 120.519 55.8199C120.988 55.8199 121.542 55.672 122.183 55.3762C122.849 55.0804 123.539 54.6983 124.254 54.2299C124.969 53.7369 125.696 53.1945 126.436 52.6029C127.175 52.0112 127.866 51.4319 128.507 50.8649C129.172 50.298 129.764 49.7679 130.282 49.2749C130.799 48.7819 131.206 48.3874 131.502 48.0916C131.748 48.3135 132.044 48.597 132.389 48.9421C132.734 49.2872 133.043 49.6077 133.314 49.9035C132.673 50.5445 131.946 51.2594 131.132 52.0482C130.318 52.8371 129.443 53.6506 128.507 54.4887C127.594 55.3022 126.633 56.1034 125.622 56.8923C124.636 57.6565 123.65 58.3467 122.664 58.963C121.678 59.5547 120.717 60.0354 119.78 60.4051C118.843 60.7749 117.956 60.9598 117.118 60.9598C116.674 60.9598 116.131 60.7503 115.49 60.3312C114.85 59.9368 114.233 59.4437 113.642 58.8521C113.05 58.2604 112.545 57.6442 112.126 57.0032C111.731 56.3376 111.534 55.746 111.534 55.2283C111.534 54.0943 111.608 52.911 111.756 51.6784C110.646 52.6645 109.574 53.6013 108.539 54.4887C107.503 55.3762 106.456 56.2144 105.396 57.0032C104.36 57.7674 103.288 58.47 102.179 59.1109C101.094 59.7765 99.9353 60.3435 98.7027 60.8119C98.3329 60.9598 98.0124 61.0338 97.7413 61.0338C97.4948 61.0338 97.1743 60.9105 96.7799 60.664C96.3854 60.4175 96.0033 60.097 95.6336 59.7026C95.2638 59.3328 94.9433 58.9137 94.6721 58.4453C94.401 57.9523 94.2654 57.4839 94.2654 57.0402C94.2654 56.0295 94.4626 54.9078 94.857 53.6752C95.2268 52.418 95.7815 51.1361 96.521 49.8296C97.2359 48.4984 98.1234 47.1795 99.1834 45.873C100.219 44.5418 101.402 43.2969 102.733 42.1382C104.064 40.955 105.531 39.8949 107.134 38.9582C108.736 37.9968 110.449 37.2326 112.273 36.6656C112.619 36.7149 113.062 36.8751 113.605 37.1463C114.147 37.3928 114.652 37.6516 115.121 37.9228C116.008 35.3837 117.019 32.8446 118.153 30.3054C119.312 27.7417 120.532 25.2888 121.814 22.9469C123.12 20.5803 124.476 18.374 125.881 16.3279C127.286 14.2572 128.691 12.433 130.097 10.8552C131.502 9.25288 132.882 7.95867 134.238 6.9726C135.619 5.98653 136.925 5.38257 138.158 5.1607C138.7 5.1607 139.267 5.34559 139.859 5.71536C140.475 6.06049 141.054 6.49189 141.597 7.00958C142.139 7.50261 142.595 8.0203 142.965 8.56263C143.359 9.10497 143.606 9.56103 143.704 9.9308C143.704 11.0648 143.421 12.3836 142.854 13.8874C142.287 15.3912 141.498 17.0182 140.487 18.7684C139.501 20.4941 138.318 22.306 136.937 24.2041C135.582 26.1023 134.115 28.0375 132.537 30.0096C130.959 31.9571 129.295 33.9046 127.545 35.8521C125.82 37.7995 124.082 39.6854 122.331 41.5096C121.592 44.0241 121 46.4276 120.556 48.7202C120.137 50.9882 119.928 53.0466 119.928 54.8955ZM138.491 9.63498C138.071 9.63498 137.554 9.94313 136.937 10.5594C136.346 11.1757 135.668 12.0385 134.904 13.1478C134.164 14.2325 133.375 15.5267 132.537 17.0305C131.699 18.5342 130.849 20.1736 129.986 21.9485C129.123 23.7234 128.26 25.6093 127.397 27.6061C126.534 29.6029 125.721 31.6243 124.957 33.6704C126.806 31.4024 128.556 29.1345 130.208 26.8665C131.884 24.5739 133.351 22.4046 134.608 20.3585C135.865 18.3124 136.864 16.4389 137.603 14.7379C138.343 13.0369 138.712 11.6318 138.712 10.5224C138.712 10.3745 138.7 10.1896 138.675 9.96778C138.675 9.74592 138.614 9.63498 138.491 9.63498ZM103.399 53.6383C104.212 53.6383 105.42 53.0713 107.023 51.9373C108.625 50.7787 110.437 49.2379 112.458 47.3151C112.68 46.1811 112.951 45.0348 113.272 43.8762C113.592 42.6929 113.95 41.4973 114.344 40.2894C112.914 41.2508 111.509 42.3478 110.129 43.5804C108.773 44.813 107.565 46.0332 106.505 47.2411C105.445 48.4491 104.582 49.5831 103.917 50.6431C103.276 51.6784 102.955 52.4673 102.955 53.0096C102.955 53.4287 103.103 53.6383 103.399 53.6383ZM152.357 55.746C152.357 55.8939 152.431 55.9678 152.579 55.9678C152.801 55.9678 153.171 55.8076 153.688 55.4871C154.206 55.1667 154.798 54.7599 155.463 54.2669C156.129 53.7738 156.831 53.2192 157.571 52.6029C158.335 51.9866 159.062 51.3826 159.753 50.791C160.443 50.1993 161.059 49.657 161.601 49.164C162.168 48.6709 162.6 48.2888 162.896 48.0177C163.118 48.2395 163.389 48.5354 163.709 48.9051C164.054 49.2749 164.362 49.6077 164.634 49.9035C164.042 50.4459 163.327 51.1115 162.489 51.9003C161.675 52.6645 160.788 53.4657 159.827 54.3039C158.89 55.142 157.916 55.9802 156.905 56.8183C155.895 57.6318 154.909 58.3591 153.947 59C152.986 59.6409 152.074 60.1586 151.211 60.5531C150.348 60.9721 149.596 61.1817 148.955 61.1817C148.511 61.1817 148.018 61.0954 147.476 60.9228C146.958 60.7503 146.478 60.5038 146.034 60.1833C145.59 59.8875 145.22 59.53 144.925 59.1109C144.629 58.6919 144.481 58.2235 144.481 57.7058C144.481 57.5086 144.469 57.2744 144.444 57.0032C144.444 56.7074 144.469 56.3376 144.518 55.8939C144.567 55.4255 144.666 54.8708 144.814 54.2299C144.962 53.5643 145.183 52.7508 145.479 51.7894C144.666 52.6522 143.704 53.552 142.595 54.4887C141.51 55.4255 140.364 56.313 139.156 57.1511C137.948 57.9893 136.728 58.7412 135.495 59.4068C134.287 60.097 133.166 60.6147 132.13 60.9598C132.007 61.0091 131.909 61.0338 131.835 61.0338C131.761 61.0338 131.687 61.0338 131.613 61.0338C131.366 61.0338 131.046 60.9105 130.651 60.664C130.232 60.4175 129.825 60.0847 129.431 59.6656C129.037 59.2712 128.704 58.8151 128.433 58.2974C128.137 57.7797 127.989 57.2621 127.989 56.7444C127.989 56.5965 128.063 56.1034 128.211 55.2653C128.359 54.4271 128.716 53.3671 129.283 52.0852C129.825 50.7787 130.639 49.3242 131.724 47.7219C132.808 46.0948 134.287 44.4308 136.161 42.7299C137.122 41.8671 138.158 41.0536 139.267 40.2894C140.204 39.6484 141.276 38.9952 142.484 38.3296C143.692 37.664 144.962 37.1339 146.293 36.7395C146.342 36.7395 146.379 36.7272 146.404 36.7025C146.453 36.6779 146.515 36.6902 146.589 36.7395C146.884 36.8381 147.23 36.9984 147.624 37.2202C148.043 37.4174 148.45 37.6393 148.844 37.8858C149.263 38.1077 149.621 38.3419 149.917 38.5884C150.237 38.8103 150.447 38.9952 150.545 39.1431C150.57 39.1924 150.57 39.2293 150.545 39.254L150.471 39.3279C149.362 39.9196 148.314 40.5852 147.328 41.3247C146.342 42.0396 145.467 42.7176 144.703 43.3585C143.815 44.1227 142.989 44.8746 142.225 45.6141C140.426 47.3891 139.181 48.9298 138.491 50.2363C137.8 51.5182 137.455 52.4426 137.455 53.0096C137.455 53.4287 137.628 53.6383 137.973 53.6383C138.318 53.6383 138.749 53.5027 139.267 53.2315C139.809 52.9357 140.413 52.5536 141.079 52.0852C141.745 51.5922 142.472 51.0252 143.261 50.3842C144.074 49.7186 144.912 49.0284 145.775 48.3135C146.539 47.6972 147.279 47.0316 147.994 46.3167C148.61 45.7251 149.251 45.0471 149.917 44.2829C150.582 43.5187 151.149 42.7422 151.618 41.9534C151.618 41.9287 151.63 41.9041 151.655 41.8794C151.679 41.8547 151.716 41.8547 151.765 41.8794C152.037 42.0766 152.345 42.4094 152.69 42.8778C153.035 43.3215 153.355 43.8146 153.651 44.3569C153.947 44.8992 154.194 45.4292 154.391 45.9469C154.613 46.44 154.724 46.8221 154.724 47.0932C154.157 48.2519 153.713 49.3119 153.392 50.2733C153.097 51.2101 152.862 52.0359 152.69 52.7508C152.542 53.4657 152.443 54.082 152.394 54.5997C152.369 55.0927 152.357 55.4748 152.357 55.746Z" fill="#F15F79"/>
</svg>
